<svg width="65" height="64" viewBox="0 0 65 64" fill="none" xmlns="http://www.w3.org/2000/svg">
<path d="M37.7766 10.5707C37.8653 10.596 37.9506 10.6067 38.0399 10.6067C38.4313 10.6067 38.7906 10.354 38.9119 9.95866L39.9693 6.43132C40.1153 5.95066 39.8413 5.44532 39.3566 5.29932C38.8766 5.15666 38.3673 5.42732 38.2213 5.91132L37.1639 9.43532C37.0219 9.91599 37.2959 10.4247 37.7766 10.5707Z" fill="#19A89D"/>
<path d="M43.7852 12.0267C43.9199 12.1013 44.0699 12.1373 44.2159 12.1373C44.5399 12.1373 44.8525 11.966 45.0199 11.664L46.7819 8.41399C47.0239 7.96866 46.8605 7.41732 46.4152 7.17532C45.9739 6.93666 45.4225 7.09999 45.1805 7.54199L43.4185 10.7913C43.1765 11.2327 43.3399 11.788 43.7852 12.0267Z" fill="#19A89D"/>
<path d="M50.6051 14.9993C50.8651 14.9993 51.1245 14.8887 51.3025 14.6753L53.6985 11.8307C54.0258 11.4467 53.9758 10.87 53.5918 10.546C53.2038 10.222 52.6305 10.272 52.3065 10.656L49.9111 13.5007C49.5871 13.8847 49.6371 14.4613 50.0211 14.7853C50.1925 14.928 50.3985 14.9993 50.6051 14.9993Z" fill="#19A89D"/>
<path d="M56.1653 19.5267C56.372 19.5267 56.578 19.4553 56.7493 19.3133L59.572 16.9427C59.956 16.6187 60.006 16.0453 59.682 15.6573C59.358 15.2733 58.7853 15.2267 58.4007 15.5473L55.578 17.918C55.1933 18.242 55.144 18.8187 55.468 19.2027C55.6453 19.4167 55.9053 19.5267 56.1653 19.5267Z" fill="#19A89D"/>
<path d="M13.5641 14.6753C13.7421 14.8887 14.0021 14.9993 14.2621 14.9993C14.4681 14.9993 14.6748 14.928 14.8455 14.7853C15.2301 14.4613 15.2801 13.8847 14.9561 13.5007L12.5601 10.656C12.2361 10.272 11.6595 10.222 11.2755 10.546C10.8908 10.87 10.8408 11.4467 11.1688 11.8307L13.5641 14.6753Z" fill="#19A89D"/>
<path d="M19.8469 11.664C20.0142 11.966 20.3276 12.1373 20.6516 12.1373C20.7976 12.1373 20.9469 12.1013 21.0822 12.0267C21.5269 11.788 21.6909 11.2327 21.4489 10.7913L19.6869 7.54199C19.4449 7.09999 18.8929 6.93666 18.4516 7.17532C18.0069 7.41732 17.8429 7.96866 18.0849 8.41399L19.8469 11.664Z" fill="#19A89D"/>
<path d="M8.14595 19.338C8.30995 19.4667 8.50595 19.5267 8.70128 19.5267C8.97595 19.5267 9.24261 19.406 9.42395 19.1747C9.73061 18.776 9.65928 18.2027 9.26061 17.8927L6.56595 15.814C6.16728 15.5047 5.59395 15.5793 5.28461 15.978C4.97795 16.3767 5.05328 16.946 5.44795 17.252L8.14595 19.338Z" fill="#19A89D"/>
<path d="M25.9555 9.95866C26.0761 10.354 26.4355 10.6067 26.8275 10.6067C26.9161 10.6067 27.0015 10.596 27.0908 10.5707C27.5715 10.4247 27.8455 9.91599 27.7028 9.43532L26.6455 5.91132C26.4995 5.42732 25.9941 5.15666 25.5101 5.29932C25.0261 5.44532 24.7521 5.95066 24.8981 6.43132L25.9555 9.95866Z" fill="#19A89D"/>
<path d="M32.4333 10.1547C32.9353 10.1547 33.3446 9.74534 33.3446 9.24334V5.59801C33.3446 5.09601 32.9353 4.68668 32.4333 4.68668C31.9313 4.68668 31.522 5.09601 31.522 5.59801V9.24334C31.522 9.74534 31.9313 10.1547 32.4333 10.1547Z" fill="#19A89D"/>
<path d="M20.0462 38.4607C15.1729 36.2853 10.7309 32.808 7.16752 28.3793C8.95086 26.1587 10.9515 24.1793 13.1122 22.4813C13.5109 22.168 13.5782 21.5947 13.2689 21.2C12.9555 20.8013 12.3862 20.7333 11.9875 21.0467C9.52752 22.976 7.27086 25.258 5.28819 27.8207C5.03219 28.148 5.03219 28.6107 5.28819 28.9387C9.10419 33.872 13.9522 37.7413 19.3062 40.126C19.4269 40.1793 19.5515 40.2047 19.6762 40.2047C20.0249 40.2047 20.3562 40.0053 20.5089 39.6633C20.7122 39.204 20.5055 38.6667 20.0462 38.4607Z" fill="#19A89D"/>
<path d="M29.8509 34.1807C27.9536 33.2767 26.7256 31.34 26.7256 29.2467C26.7256 26.232 29.1783 23.7793 32.1929 23.7793C32.3536 23.7793 32.5096 23.7867 32.6703 23.8007C32.3603 24.338 32.1929 24.954 32.1929 25.602C32.1929 27.6133 33.8269 29.2467 35.8383 29.2467C36.4823 29.2467 37.1016 29.0793 37.6396 28.77C37.6536 28.93 37.6609 29.0867 37.6609 29.2467C37.6609 31.34 36.4323 33.2767 34.5356 34.1807C34.2183 34.3333 34.0156 34.6507 34.0156 35.0027V42.0047H30.3703V35.0027C30.3703 34.6507 30.1676 34.3333 29.8509 34.1807ZM42.2169 44.738C42.2169 45.24 41.8076 45.6493 41.3056 45.6493H23.0803C22.5789 45.6493 22.1689 45.24 22.1689 44.738C22.1689 44.2367 22.5789 43.8273 23.0803 43.8273H41.3056C41.8076 43.8273 42.2169 44.2367 42.2169 44.738ZM32.1929 58.4073C28.1743 58.4073 24.9029 55.136 24.9029 51.1173H39.4829C39.4829 55.136 36.2116 58.4073 32.1929 58.4073ZM59.3389 29.806C59.5949 29.478 59.5949 29.0153 59.3389 28.688C52.4403 19.7787 42.5443 14.6667 32.1929 14.6667C26.0316 14.6667 19.9443 16.4753 14.5876 19.896C14.1636 20.1667 14.0389 20.7327 14.3096 21.156C14.5803 21.5793 15.1463 21.704 15.5696 21.4333C17.9123 19.9347 20.4069 18.782 22.9843 17.956C19.7096 20.6293 17.6129 24.698 17.6129 29.2467C17.6129 33.7073 19.5989 37.822 23.0803 40.6093V42.0047C21.5709 42.0047 20.3469 43.2293 20.3469 44.738C20.3469 46.2473 21.5709 47.472 23.0803 47.472H41.3056C41.8076 47.472 42.2169 47.8813 42.2169 48.3833C42.2169 48.8853 41.8076 49.2947 41.3056 49.2947H23.0803C22.5789 49.2947 22.1689 49.704 22.1689 50.206C22.1689 50.708 22.5789 51.1173 23.0803 51.1173C23.0803 56.14 27.1669 60.23 32.1929 60.23C37.2189 60.23 41.3056 56.14 41.3056 51.1173C42.8149 51.1173 44.0396 49.8927 44.0396 48.3833C44.0396 47.6787 43.7656 47.0447 43.3276 46.5607C43.7656 46.0767 44.0396 45.4433 44.0396 44.738C44.0396 43.2293 42.8149 42.0047 41.3056 42.0047V40.6093C44.7869 37.822 46.7729 33.7073 46.7729 29.2467C46.7729 28.218 46.6596 27.1713 46.4316 26.136C46.3249 25.6413 45.8409 25.328 45.3496 25.438C44.8583 25.5447 44.5449 26.0293 44.6516 26.524C44.8509 27.4313 44.9509 28.35 44.9509 29.2467C44.9509 33.28 43.0889 36.996 39.8463 39.4347C39.6183 39.6053 39.4829 39.876 39.4829 40.164V42.0047H35.8383V35.5507C38.0703 34.2587 39.4829 31.842 39.4829 29.2467C39.4829 28.3853 39.3263 27.5273 39.0169 26.702C38.8956 26.374 38.6003 26.1467 38.2516 26.1147C37.8989 26.0787 37.5683 26.25 37.3863 26.5453C37.0523 27.0967 36.4716 27.4247 35.8383 27.4247C34.8343 27.4247 34.0156 26.606 34.0156 25.602C34.0156 24.968 34.3429 24.388 34.8949 24.0533C35.1903 23.872 35.3576 23.534 35.3256 23.1887C35.2936 22.8393 35.0656 22.544 34.7383 22.4233C33.9123 22.1133 33.0543 21.9567 32.1929 21.9567C28.1743 21.9567 24.9029 25.228 24.9029 29.2467C24.9029 31.842 26.3163 34.2587 28.5483 35.5507V42.0047H24.9029V40.164C24.9029 39.876 24.7676 39.6053 24.5403 39.4347C21.2969 36.996 19.4356 33.28 19.4356 29.2467C19.4356 22.2133 25.1596 16.4893 32.1929 16.4893C36.9449 16.4893 41.2736 19.1093 43.4876 23.3273C43.7229 23.772 44.2743 23.9433 44.7196 23.708C45.1643 23.4733 45.3349 22.9253 45.1003 22.48C44.1709 20.7073 42.9109 19.184 41.4229 17.9627C47.5029 19.928 53.0776 23.8007 57.4589 29.2467C53.8963 33.6753 49.4536 37.1527 44.5803 39.328C44.1216 39.534 43.9149 40.0713 44.1176 40.5307C44.2709 40.8727 44.6016 41.072 44.9509 41.072C45.0756 41.072 45.1996 41.0467 45.3209 40.9933C50.6743 38.6087 55.5189 34.7393 59.3389 29.806Z" fill="#19A89D"/>
<path d="M51.3025 40.778C50.9791 40.3933 50.4025 40.3467 50.0211 40.6707C49.6371 40.9947 49.5871 41.568 49.9111 41.956L52.3065 44.8C52.4878 45.0133 52.7445 45.124 53.0045 45.124C53.2105 45.124 53.4205 45.0527 53.5918 44.9107C53.9758 44.5827 54.0258 44.01 53.6985 43.6253L51.3025 40.778Z" fill="#19A89D"/>
<path d="M56.7493 36.1433C56.3647 35.8193 55.7913 35.8687 55.468 36.2533C55.144 36.6413 55.1933 37.2147 55.578 37.5387L58.4007 39.9093C58.5713 40.0513 58.778 40.1227 58.9847 40.1227C59.2447 40.1227 59.504 40.0127 59.682 39.7953C60.006 39.4107 59.956 38.834 59.572 38.51L56.7493 36.1433Z" fill="#19A89D"/>
<path d="M13.5641 40.778L11.1688 43.6253C10.8408 44.01 10.8908 44.5827 11.2755 44.9107C11.4461 45.0527 11.6561 45.124 11.8628 45.124C12.1228 45.124 12.3788 45.0133 12.5601 44.8L14.9561 41.956C15.2801 41.568 15.2301 40.9947 14.8455 40.6707C14.4648 40.3467 13.8881 40.3967 13.5641 40.778Z" fill="#19A89D"/>
<path d="M8.14595 36.118L5.44795 38.2007C5.05328 38.5067 4.97795 39.08 5.28461 39.4787C5.46595 39.71 5.73661 39.8347 6.00661 39.8347C6.20261 39.8347 6.39861 39.77 6.56595 39.642L9.26061 37.5633C9.65928 37.254 9.73061 36.6807 9.42395 36.282C9.11461 35.8833 8.54128 35.812 8.14595 36.118Z" fill="#19A89D"/>
</svg>
