<svg width="96" height="97" viewBox="0 0 96 97" fill="none" xmlns="http://www.w3.org/2000/svg">
<path d="M47.963 36.2511C48.099 36.2511 48.233 36.2381 48.366 36.2111C48.499 36.1851 48.628 36.1461 48.753 36.0941C48.878 36.0421 48.997 35.9791 49.11 35.9031C49.222 35.8281 49.327 35.7421 49.423 35.6471C49.518 35.5511 49.604 35.4461 49.679 35.3341C49.755 35.2211 49.818 35.1021 49.87 34.9771C49.922 34.8521 49.961 34.7231 49.987 34.5901C50.014 34.4571 50.027 34.3231 50.027 34.1871C50.027 34.0521 50.014 33.9171 49.987 33.7841C49.961 33.6511 49.922 33.5221 49.87 33.3971C49.818 33.2721 49.755 33.1531 49.679 33.0401C49.604 32.9281 49.518 32.8231 49.423 32.7281C49.327 32.6321 49.222 32.5461 49.11 32.4711C48.997 32.3961 48.878 32.3321 48.753 32.2801C48.628 32.2281 48.499 32.1891 48.366 32.1631C48.233 32.1361 48.099 32.1231 47.963 32.1231C47.693 32.1231 47.423 32.1301 47.153 32.1431C46.883 32.1561 46.614 32.1761 46.345 32.2031C46.076 32.2291 45.808 32.2621 45.54 32.3021C45.273 32.3411 45.007 32.3881 44.742 32.4401C44.477 32.4931 44.213 32.5521 43.951 32.6181C43.689 32.6841 43.428 32.7561 43.17 32.8341C42.911 32.9131 42.655 32.9971 42.4 33.0881C42.146 33.1791 41.894 33.2771 41.644 33.3801C41.395 33.4831 41.148 33.5931 40.903 33.7081C40.659 33.8241 40.418 33.9451 40.179 34.0731C39.941 34.2001 39.706 34.3331 39.474 34.4721C39.242 34.6111 39.014 34.7561 38.79 34.9061C38.565 35.0561 38.344 35.2121 38.127 35.3731C37.91 35.5331 37.697 35.7001 37.488 35.8711C37.279 36.0431 37.075 36.2191 36.874 36.4001C36.674 36.5821 36.478 36.7681 36.287 36.9591C36.096 37.1501 35.91 37.3461 35.728 37.5461C35.547 37.7471 35.371 37.9511 35.199 38.1601C35.028 38.3691 34.861 38.5821 34.701 38.7991C34.54 39.0161 34.384 39.2371 34.234 39.4611C34.084 39.6861 33.939 39.9141 33.8 40.1461C33.661 40.3781 33.528 40.6131 33.401 40.8511C33.273 41.0901 33.152 41.3311 33.036 41.5751C32.921 41.8201 32.811 42.0671 32.708 42.3161C32.605 42.5661 32.507 42.8181 32.416 43.0721C32.325 43.3271 32.241 43.5831 32.162 43.8421C32.084 44.1001 32.012 44.3611 31.946 44.6231C31.88 44.8851 31.821 45.1491 31.768 45.4141C31.716 45.6791 31.669 45.9451 31.63 46.2121C31.59 46.4801 31.557 46.7481 31.531 47.0171C31.504 47.2861 31.484 47.5551 31.471 47.8251C31.458 48.0951 31.451 48.3651 31.451 48.6351C31.451 48.9051 31.458 49.1751 31.471 49.4451C31.484 49.7151 31.504 49.9851 31.531 50.2541C31.557 50.5221 31.59 50.7911 31.63 51.0581C31.669 51.3251 31.716 51.5911 31.768 51.8561C31.821 52.1211 31.88 52.3851 31.946 52.6471C32.012 52.9091 32.084 53.1701 32.162 53.4281C32.241 53.6871 32.325 53.9431 32.416 54.1981C32.507 54.4521 32.605 54.7041 32.708 54.9541C32.811 55.2041 32.921 55.4511 33.036 55.6951C33.152 55.9391 33.273 56.1801 33.401 56.4191C33.528 56.6571 33.661 56.8921 33.8 57.1241C33.939 57.3561 34.084 57.5841 34.234 57.8091C34.384 58.0331 34.54 58.2541 34.701 58.4711C34.861 58.6881 35.028 58.9011 35.199 59.1101C35.371 59.3191 35.547 59.5241 35.728 59.7241C35.91 59.9241 36.096 60.1201 36.287 60.3111C36.478 60.5021 36.674 60.6881 36.874 60.8701C37.075 61.0511 37.279 61.2281 37.488 61.3991C37.697 61.5701 37.91 61.7371 38.127 61.8981C38.344 62.0591 38.565 62.2141 38.789 62.3641C39.014 62.5141 39.242 62.6591 39.474 62.7981C39.706 62.9371 39.941 63.0701 40.179 63.1971C40.418 63.3251 40.659 63.4461 40.903 63.5621C41.148 63.6771 41.395 63.7871 41.644 63.8901C41.894 63.9941 42.146 64.0911 42.4 64.1821C42.655 64.2731 42.911 64.3581 43.17 64.4361C43.428 64.5151 43.689 64.5871 43.951 64.6521C44.213 64.7181 44.477 64.7771 44.742 64.8301C45.007 64.8831 45.273 64.9291 45.54 64.9681C45.808 65.0081 46.076 65.0411 46.345 65.0681C46.614 65.0941 46.883 65.1141 47.153 65.1271C47.423 65.1401 47.693 65.1471 47.963 65.1471C48.233 65.1471 48.503 65.1401 48.773 65.1271C49.043 65.1141 49.313 65.0941 49.582 65.0681C49.85 65.0411 50.119 65.0081 50.386 64.9681C50.653 64.9291 50.919 64.8831 51.184 64.8301C51.449 64.7771 51.713 64.7181 51.975 64.6521C52.237 64.5871 52.498 64.5151 52.756 64.4361C53.015 64.3581 53.271 64.2731 53.526 64.1821C53.78 64.0911 54.032 63.9941 54.282 63.8901C54.532 63.7871 54.779 63.6771 55.023 63.5621C55.267 63.4461 55.508 63.3251 55.747 63.1971C55.985 63.0701 56.22 62.9371 56.452 62.7981C56.684 62.6591 56.912 62.5141 57.137 62.3641C57.361 62.2141 57.582 62.0591 57.799 61.8981C58.016 61.7371 58.229 61.5701 58.438 61.3991C58.647 61.2281 58.852 61.0511 59.052 60.8701C59.252 60.6881 59.448 60.5021 59.639 60.3111C59.83 60.1201 60.016 59.9241 60.198 59.7241C60.379 59.5241 60.556 59.3191 60.727 59.1101C60.898 58.9011 61.065 58.6881 61.226 58.4711C61.387 58.2541 61.542 58.0331 61.692 57.8091C61.842 57.5841 61.987 57.3561 62.126 57.1241C62.265 56.8921 62.398 56.6571 62.525 56.4191C62.653 56.1801 62.774 55.9391 62.89 55.6951C63.005 55.4511 63.115 55.2041 63.218 54.9541C63.322 54.7041 63.419 54.4521 63.51 54.1981C63.601 53.9431 63.686 53.6871 63.764 53.4281C63.843 53.1701 63.915 52.9091 63.98 52.6471C64.046 52.3851 64.105 52.1211 64.158 51.8561C64.211 51.5911 64.257 51.3251 64.296 51.0581C64.336 50.7911 64.369 50.5221 64.396 50.2541C64.422 49.9851 64.442 49.7151 64.455 49.4451C64.468 49.1751 64.475 48.9051 64.475 48.6351C64.475 48.5001 64.462 48.3651 64.435 48.2321C64.409 48.0991 64.37 47.9701 64.318 47.8451C64.266 47.7201 64.203 47.6011 64.127 47.4881C64.052 47.3761 63.966 47.2711 63.871 47.1761C63.775 47.0801 63.67 46.9941 63.558 46.9191C63.445 46.8441 63.326 46.7801 63.201 46.7281C63.076 46.6761 62.947 46.6371 62.814 46.6111C62.681 46.5841 62.547 46.5711 62.411 46.5711C62.276 46.5711 62.141 46.5841 62.008 46.6111C61.875 46.6371 61.746 46.6761 61.621 46.7281C61.496 46.7801 61.377 46.8441 61.264 46.9191C61.152 46.9941 61.047 47.0801 60.952 47.1761C60.856 47.2711 60.77 47.3761 60.695 47.4881C60.62 47.6011 60.556 47.7201 60.504 47.8451C60.452 47.9701 60.413 48.0991 60.387 48.2321C60.36 48.3651 60.347 48.5001 60.347 48.6351C60.347 49.0411 60.327 49.4451 60.287 49.8491C60.248 50.2531 60.188 50.6531 60.109 51.0511C60.03 51.4491 59.932 51.8421 59.814 52.2301C59.696 52.6181 59.56 53.0001 59.404 53.3741C59.249 53.7491 59.076 54.1151 58.885 54.4731C58.694 54.8311 58.485 55.1781 58.26 55.5151C58.035 55.8521 57.793 56.1781 57.536 56.4911C57.279 56.8051 57.007 57.1051 56.72 57.3921C56.433 57.6791 56.133 57.9511 55.819 58.2081C55.506 58.4651 55.18 58.7071 54.843 58.9321C54.506 59.1571 54.159 59.3661 53.801 59.5571C53.443 59.7481 53.077 59.9211 52.702 60.0761C52.328 60.2321 51.946 60.3681 51.558 60.4861C51.17 60.6041 50.777 60.7021 50.379 60.7811C49.981 60.8601 49.581 60.9201 49.177 60.9591C48.773 60.9991 48.369 61.0191 47.963 61.0191C47.557 61.0191 47.153 60.9991 46.749 60.9591C46.346 60.9201 45.945 60.8601 45.547 60.7811C45.149 60.7021 44.756 60.6041 44.368 60.4861C43.98 60.3681 43.599 60.2321 43.224 60.0761C42.849 59.9211 42.483 59.7481 42.125 59.5571C41.768 59.3661 41.42 59.1571 41.083 58.9321C40.746 58.7071 40.42 58.4651 40.107 58.2081C39.793 57.9511 39.493 57.6791 39.206 57.3921C38.919 57.1051 38.647 56.8051 38.39 56.4911C38.133 56.1781 37.891 55.8521 37.666 55.5151C37.441 55.1781 37.233 54.8311 37.041 54.4731C36.85 54.1151 36.677 53.7491 36.522 53.3741C36.367 53.0001 36.23 52.6181 36.112 52.2301C35.995 51.8421 35.896 51.4491 35.817 51.0511C35.738 50.6531 35.678 50.2531 35.639 49.8491C35.599 49.4451 35.579 49.0411 35.579 48.6351C35.579 48.2291 35.599 47.8251 35.639 47.4211C35.678 47.0181 35.738 46.6171 35.817 46.2191C35.896 45.8211 35.995 45.4281 36.112 45.0401C36.23 44.6521 36.367 44.2711 36.522 43.8961C36.677 43.5211 36.85 43.1551 37.041 42.7971C37.233 42.4401 37.441 42.0921 37.666 41.7551C37.891 41.4181 38.133 41.0921 38.39 40.7791C38.647 40.4651 38.919 40.1651 39.206 39.8781C39.493 39.5911 39.793 39.3191 40.107 39.0621C40.42 38.8051 40.746 38.5631 41.083 38.3381C41.42 38.1131 41.768 37.9051 42.125 37.7131C42.483 37.5221 42.849 37.3491 43.224 37.1941C43.599 37.0391 43.98 36.9021 44.368 36.7841C44.756 36.6671 45.149 36.5681 45.547 36.4891C45.945 36.4101 46.346 36.3501 46.749 36.3111C47.153 36.2711 47.557 36.2511 47.963 36.2511Z" fill="#19A89D"/>
<path d="M87.348 36.3821C87.312 36.2481 87.263 36.1191 87.201 35.9941C87.139 35.8701 87.066 35.7531 86.98 35.6441C86.894 35.5341 86.799 35.4341 86.693 35.3441C86.587 35.2541 86.474 35.1751 86.352 35.1081C86.231 35.0411 86.103 34.9871 85.971 34.9451C85.838 34.9041 85.703 34.8761 85.565 34.8611C85.426 34.8471 85.288 34.8471 85.15 34.8611C85.012 34.8741 84.876 34.9021 84.743 34.9431C84.611 34.9841 84.483 35.0381 84.362 35.1051C84.24 35.1721 84.126 35.2501 84.02 35.3401C83.914 35.4291 83.818 35.5291 83.732 35.6381C83.646 35.7471 83.572 35.8641 83.509 35.9881C83.447 36.1121 83.398 36.2411 83.361 36.3761C83.325 36.5101 83.303 36.6461 83.294 36.7851C83.285 36.9231 83.29 37.0611 83.309 37.1991C83.329 37.3371 83.361 37.4711 83.408 37.6021C84.534 41.1931 85.103 44.8711 85.115 48.6351C85.115 69.1251 68.453 85.7871 47.963 85.7871C27.473 85.7871 10.811 69.1251 10.811 48.6351C10.811 28.1451 27.473 11.4831 47.963 11.4831C51.727 11.4951 55.405 12.0641 58.996 13.1911C59.127 13.2371 59.261 13.2701 59.399 13.2891C59.537 13.3081 59.675 13.3131 59.813 13.3041C59.952 13.2961 60.089 13.2731 60.223 13.2371C60.357 13.2001 60.486 13.1511 60.61 13.0891C60.734 13.0261 60.851 12.9521 60.96 12.8661C61.069 12.7801 61.169 12.6841 61.259 12.5781C61.348 12.4721 61.427 12.3581 61.493 12.2371C61.56 12.1151 61.614 11.9871 61.655 11.8551C61.696 11.7221 61.724 11.5861 61.737 11.4481C61.751 11.3101 61.751 11.1721 61.737 11.0331C61.723 10.8951 61.695 10.7601 61.653 10.6271C61.612 10.4951 61.557 10.3681 61.49 10.2461C61.423 10.1241 61.344 10.0111 61.254 9.9051C61.164 9.7991 61.064 9.7041 60.954 9.6181C60.845 9.5331 60.728 9.4591 60.604 9.3971C60.479 9.3351 60.35 9.2861 60.216 9.2501C56.228 7.9941 52.144 7.3621 47.963 7.3551C25.203 7.3551 6.68298 25.8751 6.68298 48.6351C6.68298 71.3951 25.203 89.9151 47.963 89.9151C70.723 89.9151 89.243 71.3951 89.243 48.6351C89.236 44.4541 88.604 40.3701 87.348 36.3821Z" fill="#19A89D"/>
<path d="M51.885 22.0851C51.997 20.9591 50.965 19.9451 49.821 19.8521C49.22 19.7951 48.601 19.7391 47.963 19.7391C32.033 19.7391 19.067 32.7051 19.067 48.6351C19.067 64.5651 32.033 77.5311 47.963 77.5311C63.893 77.5311 76.859 64.5651 76.859 48.6351C76.859 47.8881 76.815 47.1441 76.728 46.4021C76.202 43.8501 72.356 44.0191 72.637 47.1341C72.697 47.6331 72.728 48.1331 72.731 48.6351C72.731 49.0401 72.721 49.4461 72.701 49.8501C72.681 50.2551 72.652 50.6591 72.612 51.0631C72.572 51.4661 72.522 51.8681 72.463 52.2691C72.404 52.6701 72.334 53.0701 72.255 53.4671C72.176 53.8651 72.087 54.2601 71.989 54.6531C71.89 55.0461 71.782 55.4371 71.665 55.8251C71.547 56.2131 71.42 56.5981 71.283 56.9791C71.147 57.3611 71.001 57.7391 70.846 58.1131C70.691 58.4881 70.526 58.8581 70.353 59.2251C70.18 59.5911 69.998 59.9531 69.807 60.3111C69.615 60.6681 69.416 61.0211 69.207 61.3681C68.999 61.7161 68.782 62.0581 68.557 62.3951C68.332 62.7321 68.098 63.0641 67.857 63.3891C67.615 63.7151 67.366 64.0341 67.109 64.3481C66.852 64.6611 66.587 64.9681 66.315 65.2681C66.043 65.5691 65.763 65.8621 65.477 66.1491C65.19 66.4351 64.897 66.7151 64.596 66.9871C64.296 67.2591 63.989 67.5241 63.676 67.7811C63.362 68.0381 63.043 68.2871 62.717 68.5291C62.392 68.7701 62.06 69.0041 61.723 69.2291C61.386 69.4541 61.044 69.6711 60.696 69.8791C60.349 70.0881 59.996 70.2871 59.639 70.4781C59.281 70.6701 58.919 70.8521 58.553 71.0251C58.186 71.1981 57.816 71.3631 57.441 71.5181C57.067 71.6731 56.689 71.8191 56.307 71.9551C55.926 72.0921 55.541 72.2191 55.153 72.3371C54.765 72.4541 54.374 72.5621 53.981 72.6611C53.588 72.7591 53.193 72.8481 52.795 72.9271C52.398 73.0061 51.998 73.0761 51.597 73.1351C51.196 73.1941 50.794 73.2441 50.391 73.2841C49.987 73.3241 49.583 73.3531 49.178 73.3731C48.774 73.3931 48.368 73.4031 47.963 73.4031C47.558 73.4031 47.153 73.3931 46.748 73.3731C46.343 73.3531 45.939 73.3241 45.535 73.2841C45.132 73.2441 44.73 73.1941 44.329 73.1351C43.928 73.0761 43.529 73.0061 43.131 72.9271C42.734 72.8481 42.338 72.7591 41.945 72.6611C41.552 72.5621 41.161 72.4541 40.773 72.3371C40.385 72.2191 40.001 72.0921 39.619 71.9551C39.237 71.8191 38.859 71.6731 38.485 71.5181C38.11 71.3631 37.74 71.1981 37.373 71.0251C37.007 70.8521 36.645 70.6701 36.288 70.4791C35.93 70.2871 35.577 70.0881 35.23 69.8791C34.882 69.6711 34.54 69.4541 34.203 69.2291C33.866 69.0041 33.534 68.7701 33.209 68.5291C32.883 68.2871 32.564 68.0381 32.25 67.7811C31.937 67.5241 31.63 67.2591 31.33 66.9871C31.03 66.7151 30.736 66.4351 30.449 66.1491C30.163 65.8621 29.883 65.5691 29.611 65.2681C29.339 64.9681 29.074 64.6611 28.817 64.3481C28.56 64.0341 28.311 63.7151 28.069 63.3891C27.828 63.0641 27.594 62.7321 27.369 62.3951C27.144 62.0581 26.927 61.7161 26.719 61.3681C26.51 61.0211 26.311 60.6681 26.12 60.3111C25.929 59.9531 25.746 59.5911 25.573 59.2251C25.4 58.8581 25.236 58.4881 25.08 58.1131C24.925 57.7391 24.779 57.3611 24.643 56.9791C24.506 56.5981 24.379 56.2131 24.262 55.8251C24.144 55.4371 24.036 55.0461 23.937 54.6531C23.839 54.2601 23.75 53.8651 23.671 53.4671C23.592 53.0701 23.523 52.6701 23.463 52.2691C23.404 51.8681 23.354 51.4661 23.314 51.0631C23.275 50.6591 23.245 50.2551 23.225 49.8501C23.205 49.4461 23.195 49.0401 23.195 48.6351C23.195 48.2301 23.205 47.8251 23.225 47.4201C23.245 47.0151 23.275 46.6111 23.314 46.2071C23.354 45.8041 23.404 45.4021 23.463 45.0011C23.523 44.6001 23.592 44.2011 23.671 43.8031C23.75 43.4061 23.839 43.0101 23.937 42.6171C24.036 42.2241 24.144 41.8331 24.262 41.4451C24.379 41.0571 24.506 40.6731 24.643 40.2911C24.779 39.9091 24.925 39.5311 25.08 39.1571C25.236 38.7821 25.4 38.4121 25.573 38.0451C25.746 37.6791 25.929 37.3171 26.12 36.9601C26.311 36.6021 26.51 36.2491 26.719 35.9021C26.927 35.5541 27.144 35.2121 27.369 34.8751C27.594 34.5381 27.828 34.2061 28.069 33.8811C28.311 33.5551 28.56 33.2361 28.817 32.9221C29.074 32.6091 29.339 32.3021 29.611 32.0021C29.883 31.7021 30.163 31.4081 30.449 31.1211C30.736 30.8351 31.03 30.5551 31.33 30.2831C31.63 30.0111 31.937 29.7461 32.25 29.4891C32.564 29.2321 32.883 28.9831 33.209 28.7411C33.534 28.5001 33.866 28.2661 34.203 28.0411C34.54 27.8161 34.882 27.5991 35.23 27.3911C35.577 27.1821 35.93 26.9831 36.288 26.7921C36.645 26.6011 37.007 26.4181 37.373 26.2451C37.74 26.0721 38.11 25.9081 38.485 25.7521C38.859 25.5971 39.237 25.4511 39.619 25.3151C40.001 25.1781 40.385 25.0511 40.773 24.9341C41.161 24.8161 41.552 24.7081 41.945 24.6091C42.338 24.5111 42.734 24.4221 43.131 24.3431C43.529 24.2641 43.928 24.1951 44.329 24.1351C44.73 24.0761 45.132 24.0261 45.535 23.9861C45.939 23.9471 46.343 23.9171 46.748 23.8971C47.153 23.8771 47.558 23.8671 47.963 23.8671C48.465 23.8701 48.966 23.9011 49.464 23.9611H49.858C50.946 24.0551 51.81 23.2291 51.885 22.0851Z" fill="#19A89D"/>
<path d="M60.347 25.9311V33.3241L46.5 47.1721C46.403 47.2671 46.317 47.3721 46.241 47.4851C46.165 47.5981 46.101 47.7171 46.049 47.8431C45.997 47.9681 45.957 48.0981 45.931 48.2311C45.904 48.3641 45.891 48.4991 45.891 48.6351C45.891 48.7711 45.904 48.9061 45.931 49.0391C45.957 49.1731 45.997 49.3021 46.049 49.4281C46.101 49.5531 46.165 49.6721 46.241 49.7851C46.317 49.8981 46.403 50.0031 46.5 50.0991C46.596 50.1941 46.701 50.2791 46.814 50.3541C46.927 50.4291 47.047 50.4921 47.172 50.5431C47.298 50.5951 47.427 50.6341 47.56 50.6601C47.693 50.6861 47.827 50.7001 47.963 50.7001C48.099 50.7001 48.233 50.6861 48.366 50.6601C48.499 50.6341 48.629 50.5951 48.754 50.5431C48.88 50.4921 48.999 50.4291 49.112 50.3541C49.225 50.2791 49.33 50.1941 49.427 50.0991L63.274 36.2511H70.667C70.94 36.2481 71.204 36.1951 71.456 36.0911C71.709 35.9871 71.934 35.8411 72.131 35.6511L84.515 23.2671C84.66 23.1221 84.781 22.9601 84.878 22.7801C84.975 22.5991 85.043 22.4091 85.083 22.2081C85.123 22.0071 85.133 21.8051 85.113 21.6011C85.093 21.3981 85.044 21.2011 84.966 21.0121C84.887 20.8231 84.783 20.6491 84.653 20.4911C84.523 20.3331 84.373 20.1981 84.202 20.0841C84.032 19.9711 83.848 19.8851 83.652 19.8261C83.456 19.7671 83.256 19.7381 83.051 19.7391H76.859V13.5471C76.858 13.3431 76.828 13.1421 76.769 12.9471C76.709 12.7511 76.623 12.5681 76.509 12.3981C76.396 12.2281 76.26 12.0781 76.103 11.9471C75.945 11.8171 75.772 11.7121 75.583 11.6331C75.394 11.5591 75.198 11.5121 74.995 11.4941C74.792 11.4761 74.591 11.4871 74.391 11.5271C74.191 11.5671 74.001 11.6341 73.821 11.7291C73.641 11.8241 73.478 11.9421 73.332 12.0841L60.948 24.4681C60.758 24.6641 60.611 24.8891 60.507 25.1421C60.403 25.3951 60.35 25.6581 60.347 25.9311ZM64.475 26.7941L72.731 18.5381V21.8031C72.731 21.9391 72.744 22.0731 72.771 22.2061C72.797 22.3391 72.836 22.4681 72.888 22.5931C72.94 22.7181 73.004 22.8371 73.079 22.9501C73.154 23.0621 73.24 23.1671 73.336 23.2631C73.431 23.3581 73.536 23.4441 73.648 23.5191C73.761 23.5951 73.88 23.6581 74.005 23.7101C74.13 23.7621 74.259 23.8011 74.392 23.8271C74.525 23.8541 74.66 23.8671 74.795 23.8671H78.06L69.804 32.1231H64.475V26.7941Z" fill="#19A89D"/>
</svg>
