<svg width="679" height="501" viewBox="0 0 679 501" fill="none" xmlns="http://www.w3.org/2000/svg">
<path d="M386.307 33.0285H270.416V200.048H386.307V33.0285Z" fill="#19A89D"/>
<path opacity="0.4" d="M386.307 33.0285H270.416V200.048H386.307V33.0285Z" fill="white"/>
<path d="M369.758 56.8884H286.981V176.188H369.758V56.8884Z" fill="white"/>
<path d="M178.129 133.018H97.7217V248.909H178.129V133.018Z" fill="#19A89D"/>
<path opacity="0.4" d="M178.129 133.018H97.7217V248.909H178.129V133.018Z" fill="white"/>
<path d="M166.643 149.567H109.208V232.344H166.643V149.567Z" fill="white"/>
<path d="M568.408 133.018H488V248.909H568.408V133.018Z" fill="#19A89D"/>
<path opacity="0.4" d="M568.408 133.018H488V248.909H568.408V133.018Z" fill="white"/>
<path d="M556.921 149.567H499.487V232.344H556.921V149.567Z" fill="white"/>
<path d="M478.849 364.868C475.44 373.389 471.827 366.572 472.389 330.68C472.662 313.876 473.838 279.552 492.432 287.102C510.276 294.362 486.757 345.132 486.757 345.132L478.849 364.868ZM504.413 369.981C504.413 369.981 543.151 329.607 528.613 316.944C513.497 303.753 501.226 335.844 495.517 351.66C483.348 385.387 484.473 393.04 490.523 386.069L504.413 369.981ZM512.576 406.214C512.576 406.214 548.042 380.956 538.771 369.163C529.125 356.892 515.099 379.661 508.435 390.909C494.238 414.94 494 420.956 499.624 416.473L512.576 406.214ZM522.171 442.344C522.171 442.344 557.654 417.087 548.383 405.293C538.72 393.023 524.694 415.775 518.047 427.04C503.85 451.053 503.595 457.086 509.236 452.604L522.171 442.344ZM460.238 369.708C460.238 369.708 410.592 343.871 402.531 361.374C394.129 379.593 428.368 382.354 445.138 383.376C480.928 385.592 487.967 382.354 479.582 378.502L460.238 369.708ZM467.226 398.135C467.226 398.135 413.439 382.695 409.007 401.459C404.406 420.973 438.508 416.797 455.159 414.548C490.676 409.605 496.914 405.038 487.932 402.924L467.226 398.135ZM479.53 429.153C479.53 429.153 433.702 417.326 430.379 433.295C426.971 449.911 455.688 445.651 469.714 443.299C499.624 438.288 504.805 434.283 497.17 432.715L479.53 429.153ZM486.705 454.717C486.705 454.717 442.394 438.084 437.401 453.61C432.203 469.783 461.261 468.59 475.44 467.738C505.725 465.932 511.23 462.506 503.85 460.12L486.705 454.717ZM457 324.971C457 324.971 436.77 262.083 413.796 273.519C389.937 285.449 417.512 313.757 431.333 327.34C460.8 356.313 469.918 358.324 466.05 348.217L457 324.971Z" fill="white"/>
<path d="M423.409 295.998C423.409 295.998 474.23 358 486.382 389.035C500.357 424.705 509.867 464.875 511.758 498.108" stroke="#CCCCCC" stroke-width="1.40434" stroke-linecap="round" stroke-linejoin="round"/>
<path d="M476.258 368.771L483.331 309.65" stroke="#CCCCCC" stroke-width="1.40434" stroke-linecap="round" stroke-linejoin="round"/>
<path d="M486.382 389.018L511.946 339.321" stroke="#CCCCCC" stroke-width="1.40434" stroke-linecap="round" stroke-linejoin="round"/>
<path d="M482.649 381.655L429.101 370.748" stroke="#CCCCCC" stroke-width="1.40434" stroke-linecap="round" stroke-linejoin="round"/>
<path d="M496.437 417.223L527.915 381.365" stroke="#CCCCCC" stroke-width="1.40434" stroke-linecap="round" stroke-linejoin="round"/>
<path d="M492.04 405.413L451.631 405.055" stroke="#CCCCCC" stroke-width="1.40434" stroke-linecap="round" stroke-linejoin="round"/>
<path d="M499.828 434.76L468.828 435.97" stroke="#CCCCCC" stroke-width="1.40434" stroke-linecap="round" stroke-linejoin="round"/>
<path d="M506.185 453.473L522.785 431.352" stroke="#CCCCCC" stroke-width="1.40434" stroke-linecap="round" stroke-linejoin="round"/>
<path d="M507.413 461.705L471.146 459.898" stroke="#CCCCCC" stroke-width="1.40434" stroke-linecap="round" stroke-linejoin="round"/>
<path d="M608.408 413.832C602.153 416.184 604.062 410.918 623.406 393.602C632.472 385.473 651.322 369.231 656.434 382.831C661.36 395.903 622.792 408.395 622.792 408.395L608.408 413.832ZM618.242 429.903C618.242 429.903 658.769 430.67 658.36 416.712C657.934 402.192 634.841 411.429 623.627 416.167C599.767 426.273 596.171 430.636 602.852 430.431L618.242 429.903ZM602.988 452.059C602.988 452.059 633.853 458.518 635.574 447.781C637.278 436.618 618.344 440.35 609.09 442.344C589.337 446.588 586.014 449.417 591.144 450.235L602.988 452.059ZM588.553 474.947C588.553 474.947 619.435 481.406 621.139 470.669C622.928 459.506 603.926 463.222 594.654 465.216C574.919 469.459 571.51 472.289 576.623 473.107L588.553 474.947ZM596.751 406.299C596.751 406.299 586.082 367.186 572.891 371.498C559.069 375.98 574.442 395.562 582.145 404.987C598.557 425.114 603.738 427.262 601.659 420.905L596.751 406.299ZM585.059 423.989C585.059 423.989 566.841 387.791 554.689 394.642C542.026 401.8 560.978 417.922 570.386 425.625C590.479 442.089 595.95 443.162 592.695 437.351L585.059 423.989ZM574.612 445.77C574.612 445.77 558.37 415.587 548.247 421.671C537.715 428.011 554.11 441.202 562.256 447.508C579.623 460.955 584.293 461.739 581.378 456.899L574.612 445.77ZM564.523 462.182C564.523 462.182 551.57 430.431 540.868 435.408C529.722 440.521 544.617 455.45 552.048 462.591C567.897 477.81 572.499 479.089 570.079 473.959L564.523 462.182ZM618.906 382.644C618.906 382.644 642.408 340.974 625.042 334.379C606.976 327.561 605.46 356.142 605.034 370.168C604.113 400.095 607.522 405.958 610.999 398.902L618.906 382.644Z" fill="white"/>
<path d="M617.781 350.535C617.781 350.535 609.788 408.037 599.255 429.767C587.155 454.717 568.885 481.287 552.115 498.637" stroke="#CCCCCC" stroke-width="1.40434" stroke-linecap="round" stroke-linejoin="round"/>
<path d="M605.05 414.377L639.971 389.086" stroke="#CCCCCC" stroke-width="1.40434" stroke-linecap="round" stroke-linejoin="round"/>
<path d="M599.256 429.716L638.25 418.877" stroke="#CCCCCC" stroke-width="1.40434" stroke-linecap="round" stroke-linejoin="round"/>
<path d="M601.335 424.109L580.815 390.262" stroke="#CCCCCC" stroke-width="1.40434" stroke-linecap="round" stroke-linejoin="round"/>
<path d="M589.2 448.923L623.746 448.037" stroke="#CCCCCC" stroke-width="1.40434" stroke-linecap="round" stroke-linejoin="round"/>
<path d="M593.325 440.776L573.641 419.098" stroke="#CCCCCC" stroke-width="1.40434" stroke-linecap="round" stroke-linejoin="round"/>
<path d="M581.531 459.336L565.647 443.452" stroke="#CCCCCC" stroke-width="1.40434" stroke-linecap="round" stroke-linejoin="round"/>
<path d="M574.697 471.931L594.637 469.885" stroke="#CCCCCC" stroke-width="1.40434" stroke-linecap="round" stroke-linejoin="round"/>
<path d="M570.914 476.617L554.059 456.456" stroke="#CCCCCC" stroke-width="1.40434" stroke-linecap="round" stroke-linejoin="round"/>
<path d="M86.1494 364.868C82.7408 373.39 79.1278 366.573 79.6902 330.68C79.9628 313.876 81.1388 279.552 99.7324 287.102C117.593 294.362 94.0572 345.133 94.0572 345.133L86.1494 364.868ZM111.713 369.981C111.713 369.981 150.452 329.607 135.931 316.944C120.797 303.753 108.526 335.844 102.817 351.66C90.6487 385.388 91.7735 393.04 97.8236 386.069L111.713 369.981ZM119.877 406.18C119.877 406.18 155.36 380.923 146.072 369.129C136.425 356.858 122.399 379.627 115.736 390.875C101.539 414.906 101.3 420.922 106.942 416.44L119.877 406.18ZM129.489 442.311C129.489 442.311 164.921 417.002 155.667 405.26C146.004 392.989 131.977 415.741 125.331 427.006C111.134 451.019 110.878 457.052 116.52 452.57L129.489 442.311ZM67.5046 369.674C67.5046 369.674 17.8761 343.837 9.79784 361.34C1.39576 379.559 35.6347 382.32 52.4047 383.343C88.1945 385.558 95.2161 382.32 86.8311 378.468L67.5046 369.674ZM74.4921 398.102C74.4921 398.102 20.7222 382.661 16.2741 401.425C11.6725 420.939 45.7751 416.763 62.4259 414.514C97.9429 409.571 104.198 405.004 95.2161 402.891L74.4921 398.102ZM86.797 429.119C86.797 429.119 40.969 417.292 37.6457 433.261C34.2371 449.877 62.9542 445.617 76.9804 443.265C106.89 438.254 112.071 434.249 104.436 432.681L86.797 429.119ZM93.972 454.684C93.972 454.684 49.6608 438.05 44.6673 453.576C39.4693 469.749 68.5272 468.556 82.7067 467.704C112.992 465.898 118.497 462.472 111.134 460.086L93.972 454.684ZM64.3006 324.971C64.3006 324.971 44.0708 262.152 21.029 273.587C-2.83084 285.517 24.7443 313.825 38.566 327.408C68.05 356.381 77.1678 358.392 73.2821 348.286L64.3006 324.971Z" fill="white"/>
<path d="M30.7095 295.998C30.7095 295.998 81.531 358 93.6824 389.035C107.658 424.705 117.167 464.875 119.059 498.108" stroke="#CCCCCC" stroke-width="1.40434" stroke-linecap="round" stroke-linejoin="round"/>
<path d="M83.5762 368.771L90.6319 309.65" stroke="#CCCCCC" stroke-width="1.40434" stroke-linecap="round" stroke-linejoin="round"/>
<path d="M93.6821 389.018L119.246 339.321" stroke="#CCCCCC" stroke-width="1.40434" stroke-linecap="round" stroke-linejoin="round"/>
<path d="M89.9502 381.655L36.4189 370.748" stroke="#CCCCCC" stroke-width="1.40434" stroke-linecap="round" stroke-linejoin="round"/>
<path d="M103.738 417.223L135.216 381.365" stroke="#CCCCCC" stroke-width="1.40434" stroke-linecap="round" stroke-linejoin="round"/>
<path d="M99.3405 405.413L58.9321 405.055" stroke="#CCCCCC" stroke-width="1.40434" stroke-linecap="round" stroke-linejoin="round"/>
<path d="M107.129 434.76L76.1284 435.97" stroke="#CCCCCC" stroke-width="1.40434" stroke-linecap="round" stroke-linejoin="round"/>
<path d="M113.503 453.473L130.103 431.352" stroke="#CCCCCC" stroke-width="1.40434" stroke-linecap="round" stroke-linejoin="round"/>
<path d="M114.713 461.705L78.4463 459.898" stroke="#CCCCCC" stroke-width="1.40434" stroke-linecap="round" stroke-linejoin="round"/>
<path d="M215.709 413.832C209.454 416.184 211.363 410.918 230.706 393.602C239.79 385.473 258.622 369.231 263.735 382.831C268.66 395.903 230.093 408.395 230.093 408.395L215.709 413.832ZM225.542 429.903C225.542 429.903 266.07 430.67 265.661 416.712C265.235 402.192 242.142 411.429 230.928 416.167C207.068 426.273 203.472 430.636 210.153 430.431L225.542 429.903ZM210.289 452.059C210.289 452.059 241.153 458.518 242.875 447.781C244.579 436.618 225.644 440.35 216.39 442.344C196.57 446.588 193.314 449.383 198.444 450.235L210.289 452.059ZM195.786 474.947C195.786 474.947 226.667 481.406 228.371 470.669C230.161 459.506 211.158 463.222 201.904 465.216C182.134 469.476 178.811 472.306 183.958 473.124L195.786 474.947ZM203.983 406.299C203.983 406.299 193.331 367.186 180.123 371.498C166.302 375.98 181.657 395.562 189.36 404.987C205.773 425.114 210.954 427.262 208.874 420.905L203.983 406.299ZM192.292 423.989C192.292 423.989 174.073 387.791 161.922 394.642C149.259 401.8 168.21 417.922 177.635 425.625C197.728 442.089 203.199 443.162 199.927 437.351L192.292 423.989ZM181.845 445.77C181.845 445.77 165.603 415.587 155.479 421.671C144.947 428.011 161.342 441.202 169.489 447.508C186.855 460.955 191.542 461.739 188.611 456.899L181.845 445.77ZM171.755 462.182C171.755 462.182 158.82 430.431 148.1 435.408C136.954 440.521 151.866 455.45 159.28 462.591C175.13 477.81 179.731 479.089 177.311 473.959L171.755 462.182ZM226.139 382.644C226.139 382.644 249.658 340.974 232.291 334.379C214.209 327.561 212.709 356.142 212.266 370.168C211.363 400.095 214.754 405.958 218.231 398.902L226.139 382.644Z" fill="white"/>
<path d="M225.082 350.535C225.082 350.535 217.089 408.037 206.556 429.767C194.456 454.717 176.186 481.287 159.416 498.637" stroke="#CCCCCC" stroke-width="1.40434" stroke-linecap="round" stroke-linejoin="round"/>
<path d="M212.352 414.377L247.272 389.086" stroke="#CCCCCC" stroke-width="1.40434" stroke-linecap="round" stroke-linejoin="round"/>
<path d="M206.557 429.716L245.55 418.877" stroke="#CCCCCC" stroke-width="1.40434" stroke-linecap="round" stroke-linejoin="round"/>
<path d="M208.636 424.109L188.116 390.262" stroke="#CCCCCC" stroke-width="1.40434" stroke-linecap="round" stroke-linejoin="round"/>
<path d="M196.501 448.923L231.047 448.037" stroke="#CCCCCC" stroke-width="1.40434" stroke-linecap="round" stroke-linejoin="round"/>
<path d="M200.626 440.776L180.941 419.098" stroke="#CCCCCC" stroke-width="1.40434" stroke-linecap="round" stroke-linejoin="round"/>
<path d="M188.832 459.336L172.948 443.452" stroke="#CCCCCC" stroke-width="1.40434" stroke-linecap="round" stroke-linejoin="round"/>
<path d="M181.998 471.931L201.938 469.885" stroke="#CCCCCC" stroke-width="1.40434" stroke-linecap="round" stroke-linejoin="round"/>
<path d="M178.231 476.617L161.359 456.456" stroke="#CCCCCC" stroke-width="1.40434" stroke-linecap="round" stroke-linejoin="round"/>
<path d="M313.261 147.215C313.261 147.215 291.446 140.262 274.761 157.441C258.076 174.62 266.87 208.927 266.87 220.976C266.87 233.025 251.532 309.598 251.532 309.598C251.532 309.598 244.101 337.429 264.519 355.068C284.936 372.708 322.668 371.174 338.774 337.225C354.879 303.276 337.802 254.874 337.802 229.855C337.802 204.837 341.518 188.118 335.945 170.035C334.253 164.701 331.312 159.847 327.366 155.878C323.421 151.909 318.585 148.939 313.261 147.215Z" fill="#263238" stroke="#263238" stroke-width="1.1217" stroke-linecap="round" stroke-linejoin="round"/>
<path d="M306.785 160.219C306.785 160.219 285.754 186.362 271.558 193.742" stroke="white" stroke-width="1.1217" stroke-linecap="round" stroke-linejoin="round"/>
<path d="M288.6 157.952C288.6 157.952 277.812 184.078 268.149 191.475" stroke="white" stroke-width="1.1217" stroke-linecap="round" stroke-linejoin="round"/>
<path d="M349.119 247.818C351.134 249.231 352.826 251.055 354.084 253.17C355.341 255.286 356.135 257.644 356.413 260.089C357.657 268.781 348.386 288.874 346.528 298.81C344.773 310.873 343.641 323.018 343.137 335.197C343.137 338.298 353.703 384.246 355.561 395.426C357.419 406.606 354.624 432.92 353.073 434.846C351.522 436.771 347.176 427.705 346.869 421.808C346.563 415.911 335.076 370.577 330.73 356.926C326.384 343.275 327.611 325.261 327.611 325.261C327.611 325.261 333.525 283.966 333.525 268.133C333.525 252.301 334.002 240.456 334.002 240.456L349.119 247.818Z" fill="#19A89D" stroke="#263238" stroke-width="1.1217" stroke-linecap="round" stroke-linejoin="round"/>
<path d="M353.039 434.777C354.59 432.92 357.385 406.52 355.527 395.357C353.669 384.194 343.137 338.23 343.137 335.197C343.649 323.04 344.787 310.918 346.545 298.878C347.228 295.692 348.104 292.55 349.17 289.471C345.518 291.229 341.515 292.138 337.462 292.13C335.297 292.13 333.184 294.124 331.156 297.515C329.452 311.933 327.594 325.261 327.594 325.261C327.594 325.261 326.367 343.258 330.713 356.926C335.059 370.594 346.545 415.911 346.852 421.808C347.159 427.705 351.488 436.635 353.039 434.777Z" fill="white" stroke="#263238" stroke-width="1.1217" stroke-linecap="round" stroke-linejoin="round"/>
<path d="M290.713 499.966C291.395 492.331 292.826 476.788 293.747 470.789C294.991 462.728 297.462 446.264 297.462 446.264L303.751 499.966H346.835C348.386 488.258 352.289 456.865 353.038 434.777C353.976 407.151 333.167 350.024 332.587 345.678C332.008 341.332 333.201 328.635 333.201 324.886C333.201 321.136 344.04 297.345 344.96 285.227C345.881 273.11 348.693 269.395 348.693 269.395L350.244 248.943C349.306 248.636 335.382 237.678 321.407 233.605C312.908 231.193 303.935 230.981 295.332 232.991C295.332 232.991 275.153 241.99 264.91 246.336C254.668 250.682 246.249 259.067 245.993 269.923C245.737 280.779 265.848 327.05 267.722 330.476C269.597 333.901 263.683 345.985 261.195 352.205C258.707 358.426 248.464 380.769 241.647 405.6C235.801 426.801 239.704 483.775 240.982 499.966H290.713Z" fill="#19A89D" stroke="#263238" stroke-width="1.1217" stroke-linecap="round" stroke-linejoin="round"/>
<path d="M300.394 321.903C300.394 321.903 316.311 323.812 332.246 308.525" stroke="#263238" stroke-width="1.1217" stroke-linecap="round" stroke-linejoin="round"/>
<path d="M311.438 277.388C316.09 276.143 322.004 256.936 322.618 246.966C322.959 241.393 323.299 237.235 323.146 234.167C322.567 233.98 321.97 233.775 321.442 233.605C312.943 231.193 303.97 230.981 295.366 232.991L287.152 236.638C286.466 241.053 286.942 245.57 288.532 249.744C291.89 259.067 306.785 278.632 311.438 277.388Z" fill="white" stroke="#263238" stroke-width="1.1217" stroke-linecap="round" stroke-linejoin="round"/>
<path d="M290.646 223.464C290.646 223.464 292.213 241.751 293.151 246.233C294.088 250.716 303.513 268.389 308.847 267.418C314.182 266.446 317.573 243.353 317.573 241.104C317.573 238.854 318.204 220.652 318.204 220.652C318.204 220.652 306.972 229.872 290.646 223.464Z" fill="white" stroke="#263238" stroke-width="1.1217" stroke-linecap="round" stroke-linejoin="round"/>
<path d="M259.9 249.437C259.9 249.437 247.186 250.068 240.045 264.35C232.904 278.632 241.272 288.21 244.067 293.834C246.862 299.458 254.634 322.397 257.105 329.232C259.576 336.066 264.57 344.127 273.262 355.307C281.953 366.487 300.257 390.381 300.257 390.381L305.234 399.073C305.234 399.073 313.619 408.702 314.539 409.009C315.46 409.316 321.067 416.456 323.231 412.111C325.395 407.765 323.231 392.256 323.231 392.256C323.231 392.256 326.64 399.073 327.901 397.522C329.162 395.971 327.577 392.563 326.35 388.83C325.123 385.098 313.636 377.974 311.131 377.65C308.625 377.326 305.541 374.242 301.825 366.794C298.11 359.346 295.298 346.343 289.401 338.537C283.504 330.731 275.767 319.296 275.767 319.296C275.767 319.296 267.075 288.244 267.075 287C267.71 281.201 266.86 275.336 264.604 269.957" fill="#19A89D"/>
<path d="M259.9 249.437C259.9 249.437 247.186 250.068 240.045 264.35C232.904 278.632 241.272 288.21 244.067 293.834C246.862 299.458 254.634 322.397 257.105 329.232C259.576 336.066 264.57 344.127 273.262 355.307C281.953 366.487 300.257 390.381 300.257 390.381L305.234 399.073C305.234 399.073 313.619 408.702 314.539 409.009C315.46 409.316 321.067 416.456 323.231 412.111C325.395 407.765 323.231 392.256 323.231 392.256C323.231 392.256 326.64 399.073 327.901 397.522C329.162 395.971 327.577 392.563 326.35 388.83C325.123 385.098 313.636 377.974 311.131 377.65C308.625 377.326 305.541 374.242 301.825 366.794C298.11 359.346 295.298 346.343 289.401 338.537C283.504 330.731 275.767 319.296 275.767 319.296C275.767 319.296 267.075 288.244 267.075 287C267.71 281.201 266.86 275.336 264.604 269.957" stroke="#263238" stroke-width="1.1217" stroke-linecap="round" stroke-linejoin="round"/>
<path d="M311.131 377.65C308.642 377.343 305.541 374.242 301.825 366.794C298.11 359.346 295.298 346.343 289.401 338.537C283.504 330.731 275.767 319.296 275.767 319.296C275.767 319.296 269.887 298.265 267.808 290.136C256.389 288.534 248.856 290.834 244.067 293.766C246.862 299.356 254.634 322.329 257.105 329.163C259.576 335.998 264.57 344.059 273.262 355.239C281.953 366.419 300.257 390.313 300.257 390.313L305.234 399.005C305.234 399.005 313.619 408.634 314.539 408.941C315.459 409.247 321.067 416.388 323.231 412.042C325.395 407.696 323.231 392.188 323.231 392.188C323.231 392.188 326.64 399.005 327.901 397.454C329.162 395.903 327.577 392.494 326.35 388.762C325.123 385.03 313.636 377.974 311.131 377.65Z" fill="white" stroke="#263238" stroke-width="1.1217" stroke-linecap="round" stroke-linejoin="round"/>
<path d="M290.713 499.966C291.395 492.331 292.826 476.788 293.747 470.789C294.991 462.728 297.462 446.264 297.462 446.264L303.751 499.966H346.835C348.386 488.258 352.289 456.865 353.038 434.777C353.43 423.274 350.039 406.64 345.915 390.841C309.494 398.817 268.2 393.04 246.76 388.881C244.953 394.216 243.181 399.823 241.647 405.6C235.801 426.801 239.704 483.775 240.982 499.966H290.713Z" fill="#263238" stroke="#263238" stroke-width="1.1217" stroke-linecap="round" stroke-linejoin="round"/>
<path d="M279.857 196.23C279.857 196.23 277.079 194.986 277.079 200.559C277.079 206.132 283.266 209.83 283.266 209.83L279.857 196.23Z" fill="white" stroke="#263238" stroke-width="1.1217" stroke-linecap="round" stroke-linejoin="round"/>
<path d="M311.744 165.621C311.744 165.621 301.826 179.596 293.117 185.186C288.624 188.14 283.963 190.832 279.159 193.247C279.159 193.247 283.505 211.262 285.362 217.107C287.22 222.953 292.793 233.281 303.973 233.894C315.153 234.508 320.129 222.697 322.311 217.107C323.553 214.219 324.218 211.116 324.271 207.972C325.84 206.981 327.178 205.665 328.195 204.112C329.212 202.56 329.885 200.808 330.168 198.974C330.781 193.077 329.23 193.384 329.23 193.384C329.23 193.384 327.526 195.31 323.828 192.412C320.828 190.18 310.756 174.006 311.744 165.621Z" fill="white" stroke="#263238" stroke-width="1.1217" stroke-linecap="round" stroke-linejoin="round"/>
<path d="M288.072 200.917C288.072 200.917 292.452 197.713 298.86 200.917" stroke="#263238" stroke-width="1.1217" stroke-linecap="round" stroke-linejoin="round"/>
<path d="M307.893 201.496C307.893 201.496 313.142 196.826 318.681 200.627" stroke="#263238" stroke-width="1.1217" stroke-linecap="round" stroke-linejoin="round"/>
<path d="M287.203 193.912C287.203 193.912 289.537 189.549 297.428 191.594" stroke="#263238" stroke-width="1.1217" stroke-linecap="round" stroke-linejoin="round"/>
<path d="M307.893 191.884C309.678 190.582 311.879 189.98 314.078 190.194C316.277 190.408 318.322 191.421 319.823 193.043" stroke="#263238" stroke-width="1.1217" stroke-linecap="round" stroke-linejoin="round"/>
<path d="M307.023 211.108C307.023 211.108 302.354 214.312 300.326 211.108" stroke="#263238" stroke-width="1.1217" stroke-linecap="round" stroke-linejoin="round"/>
<path d="M298.57 217.823C298.57 217.823 304.399 220.141 307.313 217.533" stroke="#263238" stroke-width="1.1217" stroke-linecap="round" stroke-linejoin="round"/>
<path d="M200.063 385.353C200.063 385.353 213.697 415.621 216.952 421.723C220.207 427.824 223.991 445.191 224.451 455.501C224.911 465.812 224.451 467.943 222.116 467.704C219.781 467.465 218.827 454.564 218.827 452.451V449.179C218.827 449.179 217.651 461.364 215.776 463.716C213.902 466.068 211.311 468.641 211.09 467.244C210.868 465.846 211.55 463.477 212.487 459.967C213.053 457.267 213.214 454.499 212.964 451.752C212.964 451.752 211.55 458.313 208.277 460.665C205.005 463.017 201.46 463.955 202.636 462.08C203.812 460.205 206.863 458.092 207.562 455.74C208.045 453.587 208.285 451.386 208.277 449.179C208.277 449.179 203.812 456.439 201.938 457.615C200.063 458.791 200.063 456.217 201.239 455.041C202.415 453.865 204.988 445.889 204.988 445.889C204.988 445.889 204.272 445.412 201 438.152C197.728 430.892 195.887 418.195 194.899 413.269C193.91 408.344 192.087 401.783 192.087 401.783L174.022 371.515C174.022 371.515 172.607 364.237 179.407 362.993C186.207 361.749 200.063 385.353 200.063 385.353Z" fill="white"/>
<path opacity="0.15" d="M200.063 385.353C200.063 385.353 213.697 415.621 216.952 421.723C220.207 427.824 223.991 445.191 224.451 455.501C224.911 465.812 224.451 467.943 222.116 467.704C219.781 467.465 218.827 454.564 218.827 452.451V449.179C218.827 449.179 217.651 461.364 215.776 463.716C213.902 466.068 211.311 468.641 211.09 467.244C210.868 465.846 211.55 463.477 212.487 459.967C213.053 457.267 213.214 454.499 212.964 451.752C212.964 451.752 211.55 458.313 208.277 460.665C205.005 463.017 201.46 463.955 202.636 462.08C203.812 460.205 206.863 458.092 207.562 455.74C208.045 453.587 208.285 451.386 208.277 449.179C208.277 449.179 203.812 456.439 201.938 457.615C200.063 458.791 200.063 456.217 201.239 455.041C202.415 453.865 204.988 445.889 204.988 445.889C204.988 445.889 204.272 445.412 201 438.152C197.728 430.892 195.887 418.195 194.899 413.269C193.91 408.344 192.087 401.783 192.087 401.783L174.022 371.515C174.022 371.515 172.607 364.237 179.407 362.993C186.207 361.749 200.063 385.353 200.063 385.353Z" fill="black"/>
<path d="M200.063 385.353C200.063 385.353 213.697 415.621 216.952 421.723C220.207 427.824 223.991 445.191 224.451 455.501C224.911 465.812 224.451 467.943 222.116 467.704C219.781 467.465 218.827 454.564 218.827 452.451V449.179C218.827 449.179 217.651 461.364 215.776 463.716C213.902 466.068 211.311 468.641 211.09 467.244C210.868 465.846 211.55 463.477 212.487 459.967C213.053 457.267 213.214 454.499 212.964 451.752C212.964 451.752 211.55 458.313 208.277 460.665C205.005 463.017 201.46 463.955 202.636 462.08C203.812 460.205 206.863 458.092 207.562 455.74C208.045 453.587 208.285 451.386 208.277 449.179C208.277 449.179 203.812 456.439 201.938 457.615C200.063 458.791 200.063 456.217 201.239 455.041C202.415 453.865 204.988 445.889 204.988 445.889C204.988 445.889 204.272 445.412 201 438.152C197.728 430.892 195.887 418.195 194.899 413.269C193.91 408.344 192.087 401.783 192.087 401.783L174.022 371.515C174.022 371.515 172.607 364.237 179.407 362.993C186.207 361.749 200.063 385.353 200.063 385.353Z" stroke="#263238" stroke-width="1.1217" stroke-linecap="round" stroke-linejoin="round"/>
<path d="M217.02 430.636C217.02 430.636 219.372 442.14 219.134 447.287C218.895 452.434 220.071 455.041 218.418 455.041C216.765 455.041 216.322 453.865 214.668 448.701C213.58 444.872 212.872 440.944 212.555 436.976C212.555 436.976 206.692 436.976 204.579 428.284" fill="white"/>
<path opacity="0.15" d="M217.02 430.636C217.02 430.636 219.372 442.14 219.134 447.287C218.895 452.434 220.071 455.041 218.418 455.041C216.765 455.041 216.322 453.865 214.668 448.701C213.58 444.872 212.872 440.944 212.555 436.976C212.555 436.976 206.692 436.976 204.579 428.284" fill="black"/>
<path d="M217.02 430.636C217.02 430.636 219.372 442.14 219.134 447.287C218.895 452.434 220.071 455.041 218.418 455.041C216.765 455.041 216.322 453.865 214.668 448.701C213.58 444.872 212.872 440.944 212.555 436.976C212.555 436.976 206.692 436.976 204.579 428.284" stroke="#263238" stroke-width="1.1217" stroke-linecap="round" stroke-linejoin="round"/>
<path d="M112.293 499.966H198.666C199.092 483.809 201.921 378.281 202.773 373.56C203.71 368.447 208.346 320.216 208.806 301.213C209.266 282.211 200.915 254.823 200.915 252.965C200.915 251.108 199.535 239.519 186.548 229.77C173.562 220.022 163.353 220.039 160.575 221.419C160.575 221.419 150.349 228.39 134.125 245.552C117.9 262.714 112.327 276.621 112.327 303.054C112.339 319.051 113.736 335.017 116.502 350.774C116.502 350.774 111.39 433.329 111.39 435.186C111.39 437.044 112.14 488.939 112.293 499.966Z" fill="white" stroke="#263238" stroke-width="1.1217" stroke-linecap="round" stroke-linejoin="round"/>
<path d="M151.491 313.348C153.325 313.344 155.156 313.241 156.979 313.041C176.851 310.877 194.132 290.562 205.534 273.008C205.005 270.468 204.477 268.031 203.949 265.798C193.195 283.335 175.811 305.849 156.434 307.962C129.455 310.894 117.235 289.641 113.827 282.773C113.349 285.398 112.992 288.159 112.753 291.073C118.786 300.208 130.972 313.348 151.491 313.348Z" fill="#263238"/>
<path d="M145.015 272.343L149.958 273.655C155.052 255.106 165.062 238.277 178.93 224.947C177.279 224.077 175.571 223.32 173.817 222.68C160.019 236.416 150.085 253.545 145.015 272.343Z" fill="#263238"/>
<path d="M149.872 296.799C151.031 296.203 175.181 283.625 200.676 250.784C200.281 248.725 199.652 246.718 198.802 244.802C173.135 278.887 147.827 292.078 147.554 292.215L149.872 296.799Z" fill="#263238"/>
<path d="M124.666 278.308L129.778 277.541C129.778 277.405 128.296 265.321 140.192 239.382C138.283 241.274 136.289 243.319 134.175 245.552C132.812 246.983 131.551 248.398 130.341 249.812C123.37 268.73 124.597 277.797 124.666 278.308Z" fill="#263238"/>
<path d="M166.83 354.063C137.448 357.88 122.519 351.711 115.838 346.973C116.23 349.461 116.503 350.842 116.503 350.842C116.503 350.842 116.503 351.745 116.349 353.381C122.894 356.977 133.392 360.386 149.463 360.386C155.494 360.36 161.517 359.944 167.494 359.142C181.038 357.4 194.057 352.799 205.687 345.644C205.892 343.496 206.079 341.298 206.267 339.065C194.477 347.084 180.969 352.221 166.83 354.063Z" fill="#263238"/>
<path d="M165.313 385.524C178.819 382.089 191.678 376.483 203.387 368.924C203.591 367.084 203.83 364.834 204.102 362.26C191.94 370.657 178.394 376.847 164.086 380.547C144.299 385.404 125.092 379.985 114.952 376.082C114.849 377.786 114.73 379.627 114.628 381.468C125.138 385.419 136.259 387.501 147.486 387.62C153.491 387.633 159.475 386.929 165.313 385.524Z" fill="#263238"/>
<path d="M112.344 418.928C112.225 420.768 112.122 422.507 112.037 424.04C125.213 427.203 138.708 428.844 152.258 428.932C168.919 429.113 185.461 426.117 201 420.104C201 418.229 201.12 416.354 201.171 414.531C166.949 428.932 130.341 423.308 112.344 418.928Z" fill="#263238"/>
<path d="M169.045 402.055C150.704 406.501 131.503 405.912 113.469 400.351C113.367 402.141 113.247 403.913 113.145 405.668C123.085 408.707 133.428 410.219 143.822 410.151C152.719 410.141 161.587 409.123 170.255 407.117C181.239 404.572 191.847 400.62 201.818 395.357C201.818 393.244 201.972 391.233 202.04 389.358C191.694 395.123 180.586 399.397 169.045 402.055Z" fill="#263238"/>
<path d="M154.729 330.084C133.766 331.14 120.218 323.403 112.702 317.029C112.821 319.381 112.974 321.665 113.145 323.846C124.182 331.571 137.391 335.582 150.86 335.299C152.207 335.299 153.587 335.299 154.985 335.197C175.555 334.157 193.757 325.158 208.465 309.206C208.635 306.224 208.755 303.497 208.806 301.23V300.889C196.791 315.802 179.356 328.823 154.729 330.084Z" fill="#263238"/>
<path d="M189.548 232.258C188.61 231.423 187.639 230.554 186.548 229.77C173.562 220.039 163.353 220.039 160.575 221.419C155.162 225.381 150.036 229.72 145.236 234.406C144.749 236.497 144.747 238.672 145.232 240.764C145.716 242.855 146.674 244.808 148.031 246.472C156.843 257.601 185.526 300.276 193.024 291.005C200.523 281.733 198.58 256.22 190.229 233.946C190.025 233.366 189.752 232.804 189.548 232.258Z" fill="#19A89D" stroke="#263238" stroke-width="1.1217" stroke-linecap="round" stroke-linejoin="round"/>
<path d="M162.484 281.256C162.484 281.256 187.537 334.6 192.633 342.951C194.878 346.919 197.522 350.648 200.523 354.08C200.523 354.08 222.679 361.528 241.682 368.498C260.684 375.469 293.713 384.621 300.65 386.546C307.586 388.472 319.192 388.404 321.101 388.404C323.01 388.404 345.216 393.517 346.665 394.437C348.114 395.358 346.205 397.215 342.95 398.153C339.694 399.09 329.043 399.993 323.93 401.851C318.817 403.708 314.659 403.248 307.245 401.391C301.402 399.594 295.795 397.105 290.543 393.977C290.543 393.977 229.683 389.733 215.316 388.029C200.949 386.325 184.639 384.314 178.214 376.9C165.32 362.344 153.42 346.937 142.595 330.783C133.869 317.591 117.9 299.066 123.95 282.279" fill="white"/>
<path d="M162.484 281.256C162.484 281.256 187.537 334.6 192.633 342.951C194.878 346.919 197.522 350.648 200.523 354.08C200.523 354.08 222.679 361.528 241.682 368.498C260.684 375.469 293.713 384.621 300.65 386.546C307.586 388.472 319.192 388.404 321.101 388.404C323.01 388.404 345.216 393.517 346.665 394.437C348.114 395.358 346.205 397.215 342.95 398.153C339.694 399.09 329.043 399.993 323.93 401.851C318.817 403.708 314.659 403.248 307.245 401.391C301.402 399.594 295.795 397.105 290.543 393.977C290.543 393.977 229.683 389.733 215.316 388.029C200.949 386.325 184.639 384.314 178.214 376.9C165.32 362.344 153.42 346.937 142.595 330.783C133.869 317.591 117.9 299.066 123.95 282.279" stroke="#263238" stroke-width="1.1217" stroke-linecap="round" stroke-linejoin="round"/>
<path d="M320.981 388.404C319.124 388.404 307.535 388.404 300.53 386.546C293.526 384.689 260.497 375.452 241.494 368.498C222.491 361.545 200.336 354.08 200.336 354.08C197.335 350.648 194.691 346.919 192.445 342.951C190.349 339.542 184.861 328.414 179.118 316.569C160.626 321.409 151.321 330.203 146.736 337.02C156.421 350.874 166.885 364.166 178.078 376.832C184.571 384.246 200.796 386.103 215.18 387.961C229.564 389.819 290.322 393.994 290.322 393.994C295.573 397.122 301.181 399.611 307.023 401.408C314.437 403.265 318.613 403.725 323.708 401.868C328.804 400.01 339.49 399.09 342.728 398.17C345.966 397.249 347.841 395.375 346.443 394.454C345.046 393.534 322.907 388.404 320.981 388.404Z" fill="white"/>
<path opacity="0.15" d="M320.981 388.404C319.124 388.404 307.535 388.404 300.53 386.546C293.526 384.689 260.497 375.452 241.494 368.498C222.491 361.545 200.336 354.08 200.336 354.08C197.335 350.648 194.691 346.919 192.445 342.951C190.349 339.542 184.861 328.414 179.118 316.569C160.626 321.409 151.321 330.203 146.736 337.02C156.421 350.874 166.885 364.166 178.078 376.832C184.571 384.246 200.796 386.103 215.18 387.961C229.564 389.819 290.322 393.994 290.322 393.994C295.573 397.122 301.181 399.611 307.023 401.408C314.437 403.265 318.613 403.725 323.708 401.868C328.804 400.01 339.49 399.09 342.728 398.17C345.966 397.249 347.841 395.375 346.443 394.454C345.046 393.534 322.907 388.404 320.981 388.404Z" fill="black"/>
<path d="M320.981 388.404C319.124 388.404 307.535 388.404 300.53 386.546C293.526 384.689 260.497 375.452 241.494 368.498C222.491 361.545 200.336 354.08 200.336 354.08C197.335 350.648 194.691 346.919 192.445 342.951C190.349 339.542 184.861 328.414 179.118 316.569C160.626 321.409 151.321 330.203 146.736 337.02C156.421 350.874 166.885 364.166 178.078 376.832C184.571 384.246 200.796 386.103 215.18 387.961C229.564 389.819 290.322 393.994 290.322 393.994C295.573 397.122 301.181 399.611 307.023 401.408C314.437 403.265 318.613 403.725 323.708 401.868C328.804 400.01 339.49 399.09 342.728 398.17C345.966 397.249 347.841 395.375 346.443 394.454C345.046 393.534 322.907 388.404 320.981 388.404Z" stroke="#263238" stroke-width="1.1217" stroke-linecap="round" stroke-linejoin="round"/>
<path d="M198.666 499.966C198.87 491.922 199.688 461.535 200.557 432.545C188.271 437.342 175.387 440.438 162.262 441.748C134.994 444.935 119.28 438.339 111.509 433.226C111.509 434.368 111.407 435.084 111.407 435.238C111.407 436.942 112.14 488.922 112.293 500L198.666 499.966Z" fill="#19A89D" stroke="#263238" stroke-width="1.1217" stroke-linecap="round" stroke-linejoin="round"/>
<path d="M176.936 496.097C172.71 480.06 182.935 459.609 168.176 448.991" stroke="#263238" stroke-width="1.1217" stroke-linecap="round" stroke-linejoin="round"/>
<path d="M176.936 459.2L195.922 440.964" stroke="#263238" stroke-width="1.1217" stroke-linecap="round" stroke-linejoin="round"/>
<path d="M129.336 459.319L128.842 496.097" stroke="#263238" stroke-width="1.1217" stroke-linecap="round" stroke-linejoin="round"/>
<path d="M129.506 446.077L129.421 452.792" stroke="#263238" stroke-width="1.1217" stroke-linecap="round" stroke-linejoin="round"/>
<path d="M205.602 146.636C213.145 148.635 219.811 153.083 224.553 159.281C227.769 163.397 229.949 168.225 230.91 173.359C233.177 187.163 225.405 191.424 227.911 197.696C230.416 203.967 232.921 207.223 230.91 210.239C228.899 213.256 222.644 213.75 221.639 214.006C220.633 214.261 218.622 225.782 214.617 230.81C210.612 235.837 196.552 230.06 196.552 230.06C196.552 230.06 190.792 239.842 189.036 243.098C187.281 246.353 190.74 265.918 188.269 274.695C185.798 283.472 180.004 273.945 168.96 260.157C157.916 246.37 152.906 235.07 153.417 231.304C153.928 227.537 162.688 218.76 164.205 215.505C165.722 212.25 166.455 210.733 165.705 207.734C164.955 204.734 156.178 192.395 156.178 176.631C156.178 160.866 168.704 145.783 185.27 144.522C192.118 144.073 198.993 144.787 205.602 146.636Z" fill="white"/>
<path opacity="0.15" d="M205.602 146.636C213.145 148.635 219.811 153.083 224.553 159.281C227.769 163.397 229.949 168.225 230.91 173.359C233.177 187.163 225.405 191.424 227.911 197.696C230.416 203.967 232.921 207.223 230.91 210.239C228.899 213.256 222.644 213.75 221.639 214.006C220.633 214.261 218.622 225.782 214.617 230.81C210.612 235.837 196.552 230.06 196.552 230.06C196.552 230.06 190.792 239.842 189.036 243.098C187.281 246.353 190.74 265.918 188.269 274.695C185.798 283.472 180.004 273.945 168.96 260.157C157.916 246.37 152.906 235.07 153.417 231.304C153.928 227.537 162.688 218.76 164.205 215.505C165.722 212.25 166.455 210.733 165.705 207.734C164.955 204.734 156.178 192.395 156.178 176.631C156.178 160.866 168.704 145.783 185.27 144.522C192.118 144.073 198.993 144.787 205.602 146.636Z" fill="black"/>
<path d="M205.602 146.636C213.145 148.635 219.811 153.083 224.553 159.281C227.769 163.397 229.949 168.225 230.91 173.359C233.177 187.163 225.405 191.424 227.911 197.696C230.416 203.967 232.921 207.223 230.91 210.239C228.899 213.256 222.644 213.75 221.639 214.006C220.633 214.261 218.622 225.782 214.617 230.81C210.612 235.837 196.552 230.06 196.552 230.06C196.552 230.06 190.792 239.842 189.036 243.098C187.281 246.353 190.74 265.918 188.269 274.695C185.798 283.472 180.004 273.945 168.96 260.157C157.916 246.37 152.906 235.07 153.417 231.304C153.928 227.537 162.688 218.76 164.205 215.505C165.722 212.25 166.455 210.733 165.705 207.734C164.955 204.734 156.178 192.395 156.178 176.631C156.178 160.866 168.704 145.783 185.27 144.522C192.118 144.073 198.993 144.787 205.602 146.636Z" stroke="#263238" stroke-width="1.1217" stroke-linecap="round" stroke-linejoin="round"/>
<path d="M208.601 158.071C214.634 155.106 218.912 155.191 221.707 156.026C217.268 151.522 211.709 148.28 205.602 146.636C198.993 144.787 192.118 144.073 185.27 144.522C168.704 145.783 156.178 160.832 156.178 176.631C156.178 192.429 164.955 204.717 165.705 207.734C165.973 208.727 166.037 209.765 165.892 210.784C177.822 213.153 181.725 207.188 181.725 207.188C180.345 207.362 178.943 207.252 177.607 206.865C176.271 206.478 175.028 205.823 173.953 204.939C170.425 201.922 170.425 190.384 174.703 185.118C178.981 179.852 183.225 187.129 183.225 191.39C183.225 195.65 185.236 199.161 187.247 198.667C189.258 198.173 188.746 193.401 189.496 190.384C190.246 187.368 199.023 182.868 201.034 180.363C203.045 177.858 200.029 175.591 196.774 171.842C193.518 168.092 196.296 164.087 208.601 158.071Z" fill="#263238" stroke="#263238" stroke-width="1.1217" stroke-linecap="round" stroke-linejoin="round"/>
<path d="M181.231 207.972C181.231 207.972 181.231 215.011 185.509 219.51" stroke="#263238" stroke-width="1.1217" stroke-linecap="round" stroke-linejoin="round"/>
<path d="M220.293 195.276C218.17 194.377 215.854 194.031 213.561 194.27" stroke="#263238" stroke-width="1.1217" stroke-linecap="round" stroke-linejoin="round"/>
<path d="M223.991 189.225C223.991 189.225 220.292 182.834 213.22 187.879" stroke="#263238" stroke-width="1.1217" stroke-linecap="round" stroke-linejoin="round"/>
<path d="M215.316 217.482C213.779 217.614 212.243 217.221 210.958 216.367C209.673 215.512 208.716 214.247 208.244 212.778" stroke="#263238" stroke-width="1.1217" stroke-linecap="round" stroke-linejoin="round"/>
<path d="M166.659 290.255L163.455 283.438C142.851 283.796 130.784 291.482 123.967 298.776C124.703 301.202 125.626 303.566 126.728 305.849C132.097 298.878 143.601 289.761 166.659 290.255Z" fill="#263238"/>
<path d="M173.8 305.235L170.596 298.521C151.457 299.543 138.59 306.599 130.699 313.075C131.892 315.052 133.17 316.995 134.449 318.887C141.726 312.751 154.389 305.593 173.8 305.235Z" fill="#263238"/>
<path d="M395.646 350.774C397.793 357.199 399.225 380.053 399.225 392.205C399.225 402.328 392.749 475.953 390.601 499.966H487.438C488.597 476.532 492.057 406.111 492.057 397.198C492.057 386.478 488.478 342.559 493.13 327.204C497.783 311.848 503.117 271.508 494.835 259.033C486.552 246.557 455.636 239.399 446.28 236.178C436.923 232.957 423.068 231.185 416.285 234.474C416.285 234.474 397.725 244.836 386.289 255.539C374.854 266.242 369.877 282.688 372.008 295.896C374.138 309.104 393.498 344.349 395.646 350.774Z" fill="white" stroke="#263238" stroke-width="1.1217" stroke-linecap="round" stroke-linejoin="round"/>
<path d="M479.786 247.784C475.612 245.857 471.34 244.15 466.987 242.671C451.222 282.883 426.422 318.931 394.504 348.03C395.032 349.206 395.424 350.16 395.646 350.808C396.719 354.986 397.415 359.253 397.725 363.556C434.189 332.306 462.376 292.54 479.786 247.784Z" fill="#263238"/>
<path d="M498.669 294.294C499.506 285.783 499.346 277.204 498.192 268.73C478.303 302.321 443.911 353.552 399.19 393.653C399.071 397.181 398.628 404.066 397.963 412.792C441.491 376.764 475.917 330.186 498.669 294.294Z" fill="#263238"/>
<path d="M487.438 499.966C488.256 483.281 490.25 442.805 491.324 417.632C444.201 426.648 411.069 418.075 397.912 413.457C395.901 439.992 392.135 482.736 390.601 499.966H487.438Z" fill="#263238" stroke="#263238" stroke-width="1.1217" stroke-linecap="round" stroke-linejoin="round"/>
<path d="M428.487 276.979C441.42 276.979 451.904 266.838 451.904 254.329C451.904 241.82 441.42 231.679 428.487 231.679C415.554 231.679 405.07 241.82 405.07 254.329C405.07 266.838 415.554 276.979 428.487 276.979Z" fill="#19A89D" stroke="#263238" stroke-width="1.1217" stroke-linecap="round" stroke-linejoin="round"/>
<path d="M407.082 225.799C407.082 225.799 411.001 239.723 411.001 247.955C411.001 256.186 419.932 275.104 434.572 266.531C449.211 257.959 441.712 238.326 439.207 232.241C437.429 227.593 436 222.82 434.929 217.959C434.929 217.959 430.277 226.481 421.295 226.89C416.53 227.174 411.748 226.807 407.082 225.799Z" fill="white" stroke="#263238" stroke-width="1.1217" stroke-linecap="round" stroke-linejoin="round"/>
<path d="M382.931 175.25C382.931 175.25 380.46 181.403 383.545 186.328C386.63 191.253 390.856 198.002 390.856 198.002L390.243 170.956C390.243 170.956 384.159 166.03 382.931 175.25Z" fill="#263238" stroke="#263238" stroke-width="1.1217" stroke-linecap="round" stroke-linejoin="round"/>
<path d="M390.857 191.85C390.857 191.85 385.931 193.708 388.386 201.684C390.84 209.66 394.538 207.223 394.538 207.223L390.857 191.85Z" fill="white" stroke="#263238" stroke-width="1.1217" stroke-linecap="round" stroke-linejoin="round"/>
<path d="M386.357 177.96C386.357 177.96 390.652 200.116 393.174 211.159C395.697 222.203 409.246 232.224 416.386 234.372C423.527 236.519 432.816 228.662 434.963 224.027C437.11 219.391 438.167 209.029 438.167 209.029C438.167 209.029 446.024 205.808 446.688 197.593C447.353 189.379 445.257 186.891 440.979 185.817L437.758 184.385C437.758 184.385 439.548 171.177 434.912 162.963C430.276 154.748 413.847 165.468 405.275 167.956C396.702 170.444 385.283 169.746 386.357 177.96Z" fill="white" stroke="#263238" stroke-width="1.1217" stroke-linecap="round" stroke-linejoin="round"/>
<path d="M407.081 194.031C407.081 194.031 405.377 206.882 407.78 207.955C410.183 209.029 414.921 206.524 415.995 206.166" stroke="#263238" stroke-width="1.1217" stroke-linecap="round" stroke-linejoin="round"/>
<path d="M413.864 215.897C413.864 215.897 423.851 217.329 427.788 205.893" stroke="#263238" stroke-width="1.1217" stroke-linecap="round" stroke-linejoin="round"/>
<path d="M394.93 191.168C395.726 189.936 396.849 188.951 398.173 188.321C399.498 187.692 400.972 187.445 402.429 187.606" stroke="#263238" stroke-width="1.1217" stroke-linecap="round" stroke-linejoin="round"/>
<path d="M412.075 185.817C412.075 185.817 419.216 182.238 423.493 186.175" stroke="#263238" stroke-width="1.1217" stroke-linecap="round" stroke-linejoin="round"/>
<path d="M401.582 200.44C402.555 200.271 403.07 198.555 402.732 196.608C402.393 194.66 401.33 193.219 400.356 193.388C399.382 193.557 398.867 195.273 399.206 197.221C399.544 199.168 400.608 200.61 401.582 200.44Z" fill="#263238"/>
<path d="M417.298 197.235C418.272 197.065 418.787 195.349 418.448 193.402C418.11 191.455 417.046 190.013 416.072 190.182C415.098 190.352 414.583 192.067 414.922 194.015C415.26 195.962 416.324 197.404 417.298 197.235Z" fill="#263238"/>
<path d="M427.073 168.314C417.596 172.762 407.657 176.145 397.435 178.403C381.722 181.607 374.581 178.045 375.28 170.189C375.978 162.332 396.344 145.187 414.904 145.187C433.464 145.187 439.906 153.708 440.979 162.69C441.565 170.416 441.565 178.176 440.979 185.902L437.758 190.538C437.758 190.538 438.576 186.925 433.464 184.027C428.351 181.13 424.567 175.813 427.073 168.314Z" fill="#263238" stroke="#263238" stroke-width="1.1217" stroke-linecap="round" stroke-linejoin="round"/>
<path d="M526.449 193.844C529.943 196.52 525.835 207.7 537.356 216.664C563.875 237.286 579.213 251.244 582.042 281.887C585.144 315.291 567.198 328.277 572.771 339.406C578.344 350.535 585.758 363.522 573.998 373.492C562.239 383.462 543.083 392.051 527.011 368.549C510.94 345.047 502.265 293.101 495.465 264.588C488.665 236.076 477.536 222.544 479.377 210.171C481.183 198.241 490.915 189.72 502.555 187.657C506.749 186.925 511.05 187.098 515.172 188.165C519.293 189.232 523.138 191.168 526.449 193.844Z" fill="#263238" stroke="#263238" stroke-width="1.1217" stroke-linecap="round" stroke-linejoin="round"/>
<path d="M494.511 312.581L444.951 348.831C444.951 348.831 365.583 377.19 360.913 378.639C356.243 380.087 333.985 384.024 329.316 386.529C324.646 389.035 315.681 405.566 314.233 409.52C313.931 410.073 313.817 410.708 313.907 411.331C313.996 411.954 314.285 412.531 314.731 412.976C315.176 413.421 315.753 413.71 316.376 413.8C316.999 413.89 317.634 413.775 318.187 413.474C319.26 412.383 329.673 402.328 332.912 401.97C336.15 401.612 339.013 401.254 339.013 401.254C339.013 401.254 330.747 408.446 330.389 410.594C330.031 412.741 331.838 412.025 333.985 410.952C336.133 409.878 344.398 406.998 347.619 401.254C350.841 395.511 353.721 392.273 359.106 390.125C364.492 387.978 434.776 372.742 447.354 370.594C459.931 368.447 505.18 341.264 507.344 340.906C509.509 340.548 501.345 312.581 494.511 312.581Z" fill="white" stroke="#263238" stroke-width="1.1217" stroke-linecap="round" stroke-linejoin="round"/>
<path d="M484.83 358.937C485.274 360.266 483.944 378.962 483.041 411.463C482.359 436.396 476.445 480.708 473.719 499.966H568.459C569.141 480.435 569.993 435.766 564.505 417.24C557.381 393.21 549.371 388.268 546.713 377.633C544.054 366.998 540.032 308.184 533.351 285.926C526.67 263.668 506.645 250.307 503.526 245.415C500.407 240.524 490.608 212.029 490.608 212.029L473.702 226.276C473.702 226.276 486.16 246.302 487.949 252.539C489.739 258.777 475.917 273.451 468.81 288.602C461.703 303.753 460.289 315.751 466.578 325.09C472.866 334.43 484.387 357.591 484.83 358.937Z" fill="#19A89D"/>
<path d="M499.317 450.406L514.843 453.814L530.369 450.406L545.895 453.814L561.421 450.406L568.613 451.974L568.459 448.463L561.421 446.912L545.895 450.32L530.369 446.912L514.843 450.32L499.317 446.912L483.808 450.32L480.076 449.502C479.956 450.644 479.837 451.769 479.701 452.911L483.808 453.814L499.317 450.406Z" fill="white"/>
<path d="M516.462 333.765L500.936 337.174L485.41 333.765L473.275 336.424L474.98 339.542L485.427 337.259L500.953 340.667L516.479 337.259L532.005 340.667L541.821 338.503C541.685 337.378 541.566 336.236 541.429 335.094L532.005 337.174L516.462 333.765Z" fill="white"/>
<path d="M499.317 476.362L514.843 479.77L530.369 476.362L545.895 479.77L561.421 476.362L568.936 478.066C568.936 476.924 568.936 475.765 568.936 474.657L561.404 472.953L545.878 476.362L530.352 472.953L514.826 476.362L499.3 472.953L483.791 476.362L477.076 474.879C476.94 476.038 476.786 477.163 476.65 478.288L483.791 479.855L499.317 476.362Z" fill="white"/>
<path d="M568.8 487.491L561.421 485.872L545.895 489.28L530.369 485.872L514.843 489.28L499.317 485.872L483.808 489.28L475.44 487.439C475.287 488.598 475.133 489.74 474.997 490.848L483.808 492.774L499.317 489.365L514.843 492.774L530.369 489.365L545.895 492.774L561.421 489.365L568.732 490.984C568.749 489.843 568.783 488.684 568.8 487.491Z" fill="white"/>
<path d="M464.26 300.481L469.884 301.708L485.41 298.299L500.936 301.708L516.462 298.299L531.988 301.708L536.641 300.685C536.436 299.543 536.232 298.418 536.027 297.276L531.988 298.163L516.462 294.754L500.936 298.163L485.41 294.754L469.884 298.163L465.283 297.157C464.908 298.305 464.567 299.412 464.26 300.481Z" fill="white"/>
<path d="M516.462 307.792L500.936 311.2L485.41 307.792L469.884 311.2L462.658 309.615C462.59 310.779 462.59 311.946 462.658 313.109L469.884 314.694L485.41 311.286L500.936 314.694L516.462 311.286L531.988 314.694L538.635 313.228C538.464 312.087 538.311 310.962 538.14 309.82L531.988 311.166L516.462 307.792Z" fill="white"/>
<path d="M516.462 320.778L500.936 324.187L485.41 320.778L469.884 324.187L465.453 323.216C465.793 323.846 466.168 324.477 466.577 325.09C466.986 325.704 467.481 326.471 467.958 327.255L469.884 327.681L485.41 324.272L500.936 327.681L516.462 324.272L531.988 327.681L540.304 325.857C540.168 324.715 540.015 323.59 539.878 322.449L531.988 324.153L516.462 320.778Z" fill="white"/>
<path d="M499.317 463.392L514.843 466.801L530.368 463.392L545.894 466.801L561.42 463.392L568.919 465.096V461.603L561.471 459.898L545.946 463.307L530.42 459.898L514.894 463.307L499.368 459.898L483.859 463.307L478.746 462.165L478.337 465.574L483.91 466.801L499.317 463.392Z" fill="white"/>
<path d="M484.83 358.937C485.274 360.266 483.944 378.962 483.041 411.463C482.359 436.396 476.445 480.708 473.719 499.966H568.459C569.141 480.435 569.993 435.766 564.505 417.24C557.381 393.21 549.371 388.268 546.713 377.633C544.054 366.998 540.032 308.184 533.351 285.926C526.67 263.668 506.645 250.307 503.526 245.415C500.407 240.524 490.608 212.029 490.608 212.029L473.702 226.276C473.702 226.276 486.16 246.302 487.949 252.539C489.739 258.777 475.917 273.451 468.81 288.602C461.703 303.753 460.289 315.751 466.578 325.09C472.866 334.43 484.387 357.591 484.83 358.937Z" stroke="#263238" stroke-width="1.1217" stroke-linecap="round" stroke-linejoin="round"/>
<path d="M473.685 330.186C473.685 330.186 479.411 341.656 498.533 337.191" stroke="#263238" stroke-width="1.1217" stroke-linecap="round" stroke-linejoin="round"/>
<path d="M525.921 404.083C525.921 404.083 497.255 439.123 484.507 467.142" stroke="#263238" stroke-width="1.1217" stroke-linecap="round" stroke-linejoin="round"/>
<path d="M495.346 432.766C495.346 432.766 483.228 455.058 480.007 469.067" stroke="#263238" stroke-width="1.1217" stroke-linecap="round" stroke-linejoin="round"/>
<path d="M479.155 285.142C488.409 280.029 500.22 257.874 505.367 253.783L508.878 250.971C506.917 249.299 505.124 247.438 503.526 245.415C500.408 240.524 490.608 212.029 490.608 212.029L473.702 226.276C473.702 226.276 486.16 246.302 487.949 252.539C489.517 258.044 478.934 270.161 471.537 283.335C472.406 285.773 474.451 287.75 479.155 285.142Z" fill="white" stroke="#263238" stroke-width="1.1217" stroke-linecap="round" stroke-linejoin="round"/>
<path d="M458.772 177.756C456.798 182.435 455.812 187.471 455.875 192.549C456.182 197.048 457.153 200.61 455.347 205.058C454.29 207.615 450.711 210.87 451.205 213.818C451.648 216.477 458.329 217.38 458.329 217.38C458.329 217.38 465.01 238.291 468.555 238.735C472.1 239.178 480.127 237.03 490.352 228.509C500.578 219.988 488.137 189.311 479.224 181.318C470.31 173.324 463.22 172.404 458.772 177.756Z" fill="white" stroke="#263238" stroke-width="1.1217" stroke-linecap="round" stroke-linejoin="round"/>
<path d="M461.806 205.655C462.446 205.655 462.965 204.19 462.965 202.382C462.965 200.575 462.446 199.11 461.806 199.11C461.166 199.11 460.647 200.575 460.647 202.382C460.647 204.19 461.166 205.655 461.806 205.655Z" fill="#263238"/>
<path d="M458.721 194.867C458.721 194.867 459.88 190.231 464.515 193.708" stroke="#263238" stroke-width="1.1217" stroke-linecap="round" stroke-linejoin="round"/>
<path d="M461.039 221.862C461.039 221.862 464.123 222.646 467.6 218.454" stroke="#263238" stroke-width="1.1217" stroke-linecap="round" stroke-linejoin="round"/>
<path d="M468.571 154.151C468.571 154.151 452.091 154.612 449.415 165.28C446.74 175.949 458.772 185.323 467.225 189.771C475.678 194.219 483.245 201.343 483.245 208.91C483.245 216.477 483.705 225.39 489.926 233.4C496.147 241.41 510.377 248.091 521.54 247.648C532.703 247.205 520.654 221.01 526.875 202.263C533.095 183.516 525.17 164.871 512.627 156.861C500.083 148.851 468.571 154.151 468.571 154.151Z" fill="#263238" stroke="#263238" stroke-width="1.1217" stroke-linecap="round" stroke-linejoin="round"/>
<path d="M569.192 315.785C569.043 318.12 568.678 320.437 568.102 322.704" stroke="white" stroke-width="1.1217" stroke-linecap="round" stroke-linejoin="round"/>
<path d="M464.788 181.812C467.856 186.925 473.667 192.378 484.592 195.446C508.452 202.263 517.535 218.743 517.535 232.94C517.535 247.137 518.677 257.362 541.395 268.73C548.093 272.079 553.963 276.875 558.581 282.769C563.2 288.664 566.451 295.511 568.101 302.815" stroke="white" stroke-width="1.1217" stroke-linecap="round" stroke-linejoin="round"/>
<path d="M461.294 170.444C461.299 171.434 461.396 172.421 461.584 173.393" stroke="white" stroke-width="1.1217" stroke-linecap="round" stroke-linejoin="round"/>
<path d="M493.113 170.444C493.113 170.444 521.524 184.658 520.944 203.967C520.365 223.277 522.086 241.461 539.691 252.25C557.296 263.038 575.481 269.872 581.736 291.448" stroke="white" stroke-width="1.1217" stroke-linecap="round" stroke-linejoin="round"/>
<path d="M508.963 273.843C508.963 273.843 501.413 276.706 497.476 291.431C493.539 306.156 509.679 332.01 512.201 343.513C514.723 355.017 517.229 372.588 517.229 372.588C517.229 372.588 460.834 418.604 452.585 425.745C444.337 432.886 440.008 437.589 440.008 437.589C440.008 437.589 419.557 455.553 417.75 459.149C415.944 462.745 410.933 481.406 412.722 482.122C414.512 482.838 417.75 474.947 417.75 473.516C417.75 472.084 421.329 464.176 421.329 464.176C421.329 464.176 418.466 482.446 418.466 483.469C418.466 484.491 421.329 483.469 421.687 482.02C422.045 480.571 425.999 465.505 425.999 465.505C425.999 465.505 423.851 482.378 425.283 484.253C426.715 486.127 429.237 473.482 429.237 473.482L432.1 463.426C432.1 463.426 431.384 481.014 432.833 481.73C434.282 482.446 437.503 464.5 437.503 464.5C437.503 464.5 443.962 451.565 446.467 447.253C447.896 444.907 448.986 442.371 449.705 439.72C449.705 439.72 483.109 421.399 503.935 411.344C524.761 401.288 542.367 382.61 544.514 379.388C546.661 376.167 541.992 330.902 538.413 311.507C534.834 292.113 527.284 268.73 508.963 273.843Z" fill="white" stroke="#263238" stroke-width="1.1217" stroke-linecap="round" stroke-linejoin="round"/>
<path d="M392.288 250.699C392.288 250.699 379.438 259.442 369.161 267.741C358.885 276.041 360.418 292.419 360.418 296.015C360.418 299.611 359.907 316.058 359.907 316.058L352.187 332.504C352.187 332.504 340.376 343.309 337.803 345.882C335.229 348.456 320.334 377.735 320.334 377.735L316.738 382.848L336.32 385.37C343.631 377.218 351.719 369.798 360.47 363.215C373.269 353.944 384.04 328.379 384.568 325.227C386.74 316.614 388.272 307.853 389.152 299.015" fill="white"/>
<path d="M392.288 250.699C392.288 250.699 379.438 259.442 369.161 267.741C358.885 276.041 360.418 292.419 360.418 296.015C360.418 299.611 359.907 316.058 359.907 316.058L352.187 332.504C352.187 332.504 340.376 343.309 337.803 345.882C335.229 348.456 320.334 377.735 320.334 377.735L316.738 382.848L336.32 385.37C343.631 377.218 351.719 369.798 360.47 363.215C373.269 353.944 384.04 328.379 384.568 325.227C386.74 316.614 388.272 307.853 389.152 299.015" stroke="#263238" stroke-width="1.1217" stroke-linecap="round" stroke-linejoin="round"/>
<path d="M385.744 319.739C377.103 305.559 365.292 307.4 360.043 309.172C359.924 312.922 359.839 315.989 359.839 315.989L352.118 332.436C352.118 332.436 340.308 343.241 337.734 345.814C335.161 348.388 320.265 377.667 320.265 377.667L316.669 382.78L336.32 385.37C343.631 377.218 351.719 369.798 360.469 363.215C373.268 353.944 384.039 328.379 384.568 325.227C384.755 324.187 385.232 322.278 385.744 319.739Z" fill="white" stroke="#263238" stroke-width="1.1217" stroke-linecap="round" stroke-linejoin="round"/>
<path d="M327.662 370.986C327.662 370.986 314.897 381.417 312.323 384.723C309.75 388.029 307.739 407.475 308.762 408.889C309.784 410.304 316.925 414.105 319.993 410.781C323.06 407.458 334.292 391.438 334.292 391.438C334.292 391.438 325.77 402.959 331.854 402.311C337.939 401.663 341.432 392.29 345.011 388.029C348.59 383.768 348.079 383.291 345.011 377.139L341.961 370.986" fill="white"/>
<path d="M327.662 370.986C327.662 370.986 314.897 381.417 312.323 384.723C309.75 388.029 307.739 407.475 308.762 408.889C309.784 410.304 316.925 414.105 319.993 410.781C323.06 407.458 334.292 391.438 334.292 391.438C334.292 391.438 325.77 402.959 331.854 402.311C337.939 401.663 341.432 392.29 345.011 388.029C348.59 383.768 348.079 383.291 345.011 377.139L341.961 370.986" stroke="#263238" stroke-width="1.1217" stroke-linecap="round" stroke-linejoin="round"/>
<path d="M308.779 408.872C308.779 408.872 315.272 386.717 317.863 385.013" stroke="#263238" stroke-width="1.1217" stroke-linecap="round" stroke-linejoin="round"/>
<path d="M311.83 410.491C311.83 410.491 319.362 389.665 323.248 385.353" stroke="#263238" stroke-width="1.1217" stroke-linecap="round" stroke-linejoin="round"/>
<path d="M315.869 411.974C315.869 411.974 324.032 391.523 329.384 386.563" stroke="#263238" stroke-width="1.1217" stroke-linecap="round" stroke-linejoin="round"/>
<path d="M334.292 391.438C334.292 391.438 338.637 387.586 339.302 385.268L334.292 391.438Z" fill="white"/>
<path d="M334.292 391.438C334.292 391.438 338.637 387.586 339.302 385.268" stroke="#263238" stroke-width="1.1217" stroke-linecap="round" stroke-linejoin="round"/>
<path d="M19.7681 499.966H657.576" stroke="#263238" stroke-width="1.1217" stroke-linecap="round" stroke-linejoin="round"/>
</svg>
