<svg width="517" height="500" viewBox="0 0 517 500" fill="none" xmlns="http://www.w3.org/2000/svg">
<path d="M4.98389 145.596C6.41511 150.878 5.71163 141.16 8.51343 129.286C11.3152 117.412 16.1305 122.221 16.1305 122.221" stroke="#263238" stroke-width="1.48791" stroke-linecap="round" stroke-linejoin="round"/>
<path d="M4.11084 133.463L12.9044 130.111" stroke="#263238" stroke-width="1.48791" stroke-linecap="round" stroke-linejoin="round"/>
<path d="M20.1699 126.081C20.1699 126.081 14.918 136.239 22.8383 140.506" stroke="#263238" stroke-width="1.48791" stroke-linecap="round" stroke-linejoin="round"/>
<path d="M27.6289 123.237C27.6289 123.237 36.3133 127.752 30.8795 137.436" stroke="#263238" stroke-width="1.48791" stroke-linecap="round" stroke-linejoin="round"/>
<path d="M21.686 129.512L27.9082 133.734" stroke="#263238" stroke-width="1.48791" stroke-linecap="round" stroke-linejoin="round"/>
<path d="M26.5615 127.65L21.6978 134.862" stroke="#263238" stroke-width="1.48791" stroke-linecap="round" stroke-linejoin="round"/>
<path d="M54.5034 235.75C55.6869 229.039 50.8001 222.706 43.5883 221.604C36.3765 220.503 29.5707 225.051 28.3872 231.762C27.2036 238.473 32.0905 244.806 39.3022 245.908C46.514 247.009 53.3198 242.461 54.5034 235.75Z" stroke="#263238" stroke-width="1.48791" stroke-linecap="round" stroke-linejoin="round"/>
<path d="M62.3526 251.951C70.2927 250.436 75.4094 243.218 73.7809 235.829C72.1525 228.44 64.3956 223.678 56.4555 225.194C48.5154 226.709 43.3987 233.927 45.0272 241.316C46.6556 248.705 54.4124 253.467 62.3526 251.951Z" stroke="#263238" stroke-width="1.48791" stroke-linecap="round" stroke-linejoin="round"/>
<path d="M53.5004 228.668L47.4116 230.689" stroke="#263238" stroke-width="1.48791" stroke-linecap="round" stroke-linejoin="round"/>
<path d="M54.3494 231.005L45.5923 233.951" stroke="#263238" stroke-width="1.48791" stroke-linecap="round" stroke-linejoin="round"/>
<path d="M54.6769 233.827L44.9009 237.326" stroke="#263238" stroke-width="1.48791" stroke-linecap="round" stroke-linejoin="round"/>
<path d="M53.9856 237.676L45.0708 241.468" stroke="#263238" stroke-width="1.48791" stroke-linecap="round" stroke-linejoin="round"/>
<path d="M52.4086 240.633L45.6406 243.252" stroke="#263238" stroke-width="1.48791" stroke-linecap="round" stroke-linejoin="round"/>
<path d="M47.8357 214.989C47.4597 213.86 43.1661 213.161 42.9841 216.118C42.8022 219.075 47.5083 216.614 48.8425 214.989C48.8425 214.989 46.4167 218.025 47.4355 218.624" stroke="#263238" stroke-width="1.48791" stroke-linecap="round" stroke-linejoin="round"/>
<path d="M71.6088 218.669L67.8003 226.039C67.8003 226.039 69.7046 222.348 71.7422 222.653C74.2529 223.07 72.5791 226.897 69.5469 225.486" stroke="#263238" stroke-width="1.48791" stroke-linecap="round" stroke-linejoin="round"/>
<path d="M486.07 339.01L492.049 344.27" stroke="#263238" stroke-width="1.48791" stroke-linecap="round" stroke-linejoin="round"/>
<path d="M492.05 337.634L487.041 344.598" stroke="#263238" stroke-width="1.48791" stroke-linecap="round" stroke-linejoin="round"/>
<path d="M497.932 339.631L503.924 337.554" stroke="#263238" stroke-width="1.48791" stroke-linecap="round" stroke-linejoin="round"/>
<path d="M506.798 331.753L510.437 334.744" stroke="#263238" stroke-width="1.48791" stroke-linecap="round" stroke-linejoin="round"/>
<path d="M513.227 328.153L508.618 342.871" stroke="#263238" stroke-width="1.48791" stroke-linecap="round" stroke-linejoin="round"/>
<path d="M234.102 256.333L250.197 246.028L271.507 247.416L272.842 272.564L257.195 282.971L237.886 281.661L234.102 256.333Z" stroke="#263238" stroke-width="1.48791" stroke-linecap="round" stroke-linejoin="round"/>
<path d="M237.886 281.661L253.472 271.22L272.842 272.564" stroke="#263238" stroke-width="1.48791" stroke-linecap="round" stroke-linejoin="round"/>
<path d="M253.472 271.221L250.197 246.028" stroke="#263238" stroke-width="1.48791" stroke-linecap="round" stroke-linejoin="round"/>
<path d="M234.102 256.333L255.364 258.625L271.507 247.417" stroke="#263238" stroke-width="1.48791" stroke-linecap="round" stroke-linejoin="round"/>
<path d="M255.364 258.625L257.195 282.971" stroke="#263238" stroke-width="1.48791" stroke-linecap="round" stroke-linejoin="round"/>
<path d="M421.956 171.85L414.824 192.471L437.02 189.683L421.956 171.85Z" stroke="#263238" stroke-width="1.48791" stroke-linecap="round" stroke-linejoin="round"/>
<path d="M421.956 171.85L425.922 190.959" stroke="#263238" stroke-width="1.48791" stroke-linecap="round" stroke-linejoin="round"/>
<path d="M425.292 187.9L427.887 187.516L428.494 190.756" stroke="#263238" stroke-width="1.48791" stroke-linecap="round" stroke-linejoin="round"/>
<path d="M142.43 360.558L153.516 365.625" stroke="#263238" stroke-width="1.48791" stroke-linecap="round" stroke-linejoin="round"/>
<path d="M149.938 356.686L146.76 367.465" stroke="#263238" stroke-width="1.48791" stroke-linecap="round" stroke-linejoin="round"/>
<path d="M151.479 351.426C151.66 351.251 151.884 351.118 152.131 351.038C152.378 350.957 152.642 350.932 152.901 350.964C153.161 350.996 153.409 351.084 153.625 351.221C153.841 351.358 154.02 351.54 154.147 351.754C155.263 353.379 153.08 356.788 153.08 356.788L157.531 355.207" stroke="#263238" stroke-width="1.48791" stroke-linecap="round" stroke-linejoin="round"/>
<path d="M229.468 5.513C240.057 11.0549 227.928 24.5994 227.928 32.5003C227.928 40.4012 240.057 39.2725 246.121 41.5299C248.547 41.5299 253.399 41.5299 253.265 47.2637" stroke="#263238" stroke-width="1.48791" stroke-linecap="round" stroke-linejoin="round"/>
<path d="M217.667 12.7027C219.51 22.037 231.008 18.7299 238.068 20.8632C250.197 24.5315 243.465 36.1797 239.851 43.2228C237.679 47.4215 235.52 53.3134 239.402 57.2977" stroke="#263238" stroke-width="1.48791" stroke-linecap="round" stroke-linejoin="round"/>
<path d="M219.219 16.3264L231.846 6.56314" stroke="#263238" stroke-width="1.48791" stroke-linecap="round" stroke-linejoin="round"/>
<path d="M224.168 19.2379L233.677 11.9013" stroke="#263238" stroke-width="1.48791" stroke-linecap="round" stroke-linejoin="round"/>
<path d="M229.759 26.665L237.789 20.7958" stroke="#263238" stroke-width="1.48791" stroke-linecap="round" stroke-linejoin="round"/>
<path d="M228.098 35.4463L243.793 24.9494" stroke="#263238" stroke-width="1.48791" stroke-linecap="round" stroke-linejoin="round"/>
<path d="M234.114 39.5432L245.054 32.0712" stroke="#263238" stroke-width="1.48791" stroke-linecap="round" stroke-linejoin="round"/>
<path d="M238.771 55.4238L252.441 45.0623" stroke="#263238" stroke-width="1.48791" stroke-linecap="round" stroke-linejoin="round"/>
<path d="M239.111 47.2749L248.026 41.4395" stroke="#263238" stroke-width="1.48791" stroke-linecap="round" stroke-linejoin="round"/>
<path d="M60.6335 366.18C73.6574 361.333 79.9925 347.578 74.7833 335.458C69.5741 323.339 54.7933 317.443 41.7694 322.291C28.7455 327.138 22.4104 340.893 27.6196 353.013C32.8288 365.133 47.6096 371.028 60.6335 366.18Z" stroke="#263238" stroke-width="1.48791" stroke-linecap="round" stroke-linejoin="round"/>
<path d="M57.588 321.369C66.4422 311.696 73.9743 306.222 76.8732 308.005C81.2881 310.703 73.3679 329.123 59.1891 349.135C45.0102 369.147 29.9338 383.188 25.5189 380.479C22.6079 378.707 25.058 370.107 31.1225 358.718" stroke="#263238" stroke-width="1.48791" stroke-linecap="round" stroke-linejoin="round"/>
<path d="M26.3436 349.09C13.9962 345.783 6.11235 341.923 6.60964 338.841C7.32525 333.965 28.6602 332.837 54.1433 336.392C79.6264 339.948 99.6636 346.686 98.8994 351.539C98.3536 354.925 87.9833 356.472 73.2465 355.953" stroke="#263238" stroke-width="1.48791" stroke-linecap="round" stroke-linejoin="round"/>
<path d="M29.5819 331.967C20.2668 316.323 15.6093 304.122 18.7628 302.215C22.9109 299.72 38.9455 315.906 54.5798 338.333C70.2142 360.76 79.5171 381.032 75.3811 383.538C72.64 385.185 64.6955 378.662 55.1014 367.555" stroke="#263238" stroke-width="1.48791" stroke-linecap="round" stroke-linejoin="round"/>
<path d="M80.4507 318.231C79.9984 318.873 79.352 319.375 78.5931 319.675C77.8341 319.975 76.9966 320.059 76.1864 319.917C75.3762 319.774 74.6296 319.411 74.0408 318.874C73.452 318.337 73.0475 317.649 72.8783 316.898C72.7091 316.147 72.7829 315.367 73.0902 314.655C73.3975 313.942 73.9247 313.331 74.6052 312.898C75.2856 312.464 76.0888 312.228 76.9133 312.219C77.7378 312.21 78.5467 312.429 79.2378 312.847C79.6981 313.126 80.0947 313.487 80.405 313.909C80.7152 314.33 80.9329 314.805 81.0455 315.305C81.1582 315.805 81.1637 316.321 81.0616 316.823C80.9595 317.326 80.7519 317.804 80.4507 318.231Z" fill="#263238"/>
<path d="M66.6358 377.703C66.1835 378.344 65.5371 378.847 64.7781 379.147C64.0192 379.447 63.1817 379.531 62.3715 379.388C61.5613 379.246 60.8147 378.883 60.2259 378.345C59.6371 377.808 59.2326 377.121 59.0634 376.37C58.8942 375.619 58.9679 374.838 59.2753 374.126C59.5826 373.414 60.1098 372.802 60.7902 372.369C61.4706 371.936 62.2738 371.7 63.0983 371.691C63.9229 371.682 64.7318 371.9 65.4229 372.319C65.8832 372.598 66.2798 372.958 66.59 373.38C66.9002 373.802 67.1179 374.276 67.2306 374.776C67.3433 375.277 67.3488 375.793 67.2467 376.295C67.1446 376.797 66.937 377.275 66.6358 377.703Z" fill="#263238"/>
<path d="M44.3428 337.351C43.8905 337.993 43.2441 338.495 42.4851 338.795C41.7262 339.095 40.8887 339.179 40.0785 339.037C39.2683 338.894 38.5217 338.531 37.9329 337.994C37.3441 337.457 36.9396 336.769 36.7704 336.018C36.6012 335.267 36.675 334.486 36.9823 333.774C37.2896 333.062 37.8168 332.451 38.4972 332.017C39.1777 331.584 39.9809 331.348 40.8054 331.339C41.6299 331.33 42.4388 331.549 43.1299 331.967C44.057 332.532 44.7053 333.416 44.9327 334.426C45.1601 335.435 44.9479 336.487 44.3428 337.351Z" fill="#263238"/>
<path d="M310.345 168.407H324.633L331.777 156.895L324.633 145.382H310.345L303.201 156.895L310.345 168.407Z" stroke="#263238" stroke-width="1.48791" stroke-linecap="round" stroke-linejoin="round"/>
<path d="M308.271 193.679L301.127 182.166H286.839" stroke="#263238" stroke-width="1.48791" stroke-linecap="round" stroke-linejoin="round"/>
<path d="M288.755 156.895H303.043L310.187 145.382L303.043 133.858H288.755L281.611 145.382L288.755 156.895Z" stroke="#263238" stroke-width="1.48791" stroke-linecap="round" stroke-linejoin="round"/>
<path d="M310.345 145.382H324.633L331.777 133.858L324.633 122.345H310.345L303.201 133.858L310.345 145.382Z" stroke="#263238" stroke-width="1.48791" stroke-linecap="round" stroke-linejoin="round"/>
<path d="M310.187 147.165C311.245 147.165 312.103 146.367 312.103 145.382C312.103 144.397 311.245 143.599 310.187 143.599C309.129 143.599 308.271 144.397 308.271 145.382C308.271 146.367 309.129 147.165 310.187 147.165Z" fill="#263238"/>
<path d="M280.35 122.989C281.408 122.989 282.266 122.19 282.266 121.205C282.266 120.22 281.408 119.422 280.35 119.422C279.291 119.422 278.433 120.22 278.433 121.205C278.433 122.19 279.291 122.989 280.35 122.989Z" fill="#263238"/>
<path d="M306.354 193.679C306.354 193.326 306.466 192.982 306.677 192.688C306.888 192.395 307.187 192.167 307.537 192.032C307.887 191.897 308.273 191.861 308.644 191.93C309.016 191.999 309.357 192.169 309.625 192.418C309.893 192.668 310.076 192.985 310.15 193.331C310.224 193.677 310.186 194.036 310.041 194.362C309.896 194.687 309.65 194.966 309.335 195.162C309.02 195.358 308.649 195.462 308.27 195.462C308.019 195.462 307.77 195.416 307.537 195.327C307.304 195.237 307.093 195.106 306.915 194.94C306.737 194.775 306.596 194.578 306.5 194.362C306.404 194.145 306.354 193.913 306.354 193.679Z" fill="#263238"/>
<path d="M286.839 183.949C287.897 183.949 288.755 183.151 288.755 182.166C288.755 181.181 287.897 180.383 286.839 180.383C285.78 180.383 284.922 181.181 284.922 182.166C284.922 183.151 285.78 183.949 286.839 183.949Z" fill="#263238"/>
<path d="M345.604 134.185C345.604 133.829 345.717 133.482 345.929 133.187C346.142 132.891 346.444 132.661 346.797 132.526C347.15 132.39 347.538 132.355 347.913 132.426C348.287 132.496 348.631 132.668 348.9 132.92C349.169 133.172 349.352 133.493 349.425 133.842C349.498 134.191 349.458 134.552 349.31 134.88C349.162 135.207 348.913 135.487 348.595 135.683C348.276 135.878 347.902 135.982 347.52 135.98C347.267 135.98 347.017 135.933 346.784 135.843C346.55 135.752 346.339 135.62 346.161 135.453C345.982 135.286 345.842 135.088 345.746 134.871C345.65 134.653 345.602 134.42 345.604 134.185Z" fill="#263238"/>
<path d="M300.981 183.949C302.039 183.949 302.897 183.151 302.897 182.166C302.897 181.181 302.039 180.383 300.981 180.383C299.922 180.383 299.064 181.181 299.064 182.166C299.064 183.151 299.922 183.949 300.981 183.949Z" fill="#263238"/>
<path d="M329.86 134.185C329.86 133.83 329.973 133.483 330.185 133.188C330.397 132.893 330.698 132.663 331.051 132.527C331.403 132.391 331.791 132.356 332.165 132.425C332.539 132.494 332.883 132.665 333.153 132.916C333.422 133.167 333.606 133.487 333.68 133.835C333.755 134.183 333.717 134.544 333.571 134.872C333.425 135.2 333.177 135.48 332.86 135.677C332.543 135.874 332.17 135.98 331.789 135.98C331.277 135.98 330.787 135.79 330.425 135.454C330.064 135.117 329.86 134.661 329.86 134.185Z" fill="#263238"/>
<path d="M308.271 168.418C308.268 168.062 308.38 167.714 308.591 167.417C308.801 167.12 309.103 166.888 309.455 166.751C309.808 166.614 310.197 166.577 310.572 166.646C310.948 166.715 311.292 166.886 311.563 167.138C311.833 167.39 312.017 167.71 312.091 168.06C312.165 168.409 312.126 168.771 311.978 169.099C311.831 169.427 311.582 169.708 311.263 169.904C310.944 170.1 310.569 170.204 310.187 170.202C309.68 170.199 309.194 170.01 308.835 169.676C308.477 169.342 308.274 168.89 308.271 168.418Z" fill="#263238"/>
<path d="M331.789 134.163H347.52" stroke="#263238" stroke-width="1.48791" stroke-linecap="round" stroke-linejoin="round"/>
<path d="M310.187 168.419L300.981 182.166" stroke="#263238" stroke-width="1.48791" stroke-linecap="round" stroke-linejoin="round"/>
<path d="M288.755 133.857L280.35 121.205" stroke="#263238" stroke-width="1.48791" stroke-linecap="round" stroke-linejoin="round"/>
<path d="M390.093 88.4724C391.741 83.2888 395.176 78.7537 399.868 75.5666C404.56 72.3796 410.248 70.7176 416.055 70.837C421.863 70.9563 427.467 72.8505 432.003 76.2272C436.539 79.604 439.756 84.2758 441.156 89.5221" stroke="#263238" stroke-width="1.48791" stroke-linecap="round" stroke-linejoin="round"/>
<path d="M412.435 119.895C405.981 119.208 400.026 116.335 395.702 111.825C391.378 107.314 388.989 101.481 388.989 95.4365" stroke="#263238" stroke-width="1.48791" stroke-linecap="round" stroke-linejoin="round"/>
<path d="M441.92 95.4365C441.92 101.963 439.135 108.223 434.177 112.839C429.218 117.456 422.493 120.05 415.479 120.053" stroke="#263238" stroke-width="1.48791" stroke-linecap="round" stroke-linejoin="round"/>
<path d="M443.424 79.8269C451.696 78.845 457.239 79.3755 458.101 81.678C459.811 86.2606 442.114 96.1367 418.572 103.744C395.03 111.352 374.568 113.79 372.846 109.196C371.936 106.746 376.569 102.785 384.671 98.4618" stroke="#263238" stroke-width="1.48791" stroke-linecap="round" stroke-linejoin="round"/>
<path d="M300.981 62.9634L303.516 67.7378L309.18 68.5053L305.081 72.23L306.051 77.4785L300.981 74.9953L295.911 77.4785L296.881 72.23L292.782 68.5053L298.446 67.7378L300.981 62.9634Z" stroke="#263238" stroke-width="1.48791" stroke-linecap="round" stroke-linejoin="round"/>
<path d="M121.908 50.2431C121.905 54.488 120.092 58.5584 116.868 61.561C113.643 64.5637 109.271 66.2534 104.709 66.2594C104.151 66.2594 103.605 66.2368 103.072 66.1917C99.752 65.8986 96.5953 64.7145 93.9852 62.7832C91.3752 60.852 89.4242 58.2567 88.3695 55.3129C87.3147 52.3692 87.2017 49.2037 88.044 46.2012C88.8863 43.1988 90.6477 40.4887 93.1142 38.4004C95.5806 36.312 98.6459 34.9354 101.937 34.4379C105.229 33.9403 108.605 34.3433 111.655 35.5977C114.705 36.8521 117.297 38.9041 119.117 41.504C120.938 44.104 121.907 47.14 121.908 50.2431V50.2431Z" stroke="#263238" stroke-width="1.48791" stroke-linecap="round" stroke-linejoin="round"/>
<path d="M119.155 53.1329C119.157 53.6245 119.003 54.1057 118.711 54.5156C118.419 54.9254 118.003 55.2454 117.516 55.4351C117.028 55.6248 116.492 55.6756 115.973 55.581C115.455 55.4865 114.978 55.2509 114.604 54.9041C114.229 54.5572 113.974 54.1148 113.87 53.6328C113.766 53.1508 113.818 52.651 114.02 52.1966C114.221 51.7422 114.563 51.3537 115.003 51.0804C115.442 50.807 115.958 50.6611 116.486 50.6611C117.192 50.6611 117.869 50.9211 118.369 51.3844C118.869 51.8476 119.151 52.4763 119.155 53.1329V53.1329Z" stroke="#263238" stroke-width="1.48791" stroke-linecap="round" stroke-linejoin="round"/>
<path d="M95.1997 59.4309C95.2006 60.0192 95.062 60.6004 94.7936 61.1331C94.5252 61.6657 94.1337 62.1367 93.6472 62.5122C91.3854 60.7748 89.6434 58.5239 88.5894 55.9771C89.2568 55.5957 90.0258 55.3962 90.809 55.4014C91.3827 55.3939 91.9523 55.4926 92.4846 55.6918C93.017 55.8909 93.5015 56.1866 93.9101 56.5615C94.3186 56.9364 94.643 57.3831 94.8644 57.8757C95.0858 58.3683 95.1997 58.8969 95.1997 59.4309Z" stroke="#263238" stroke-width="1.48791" stroke-linecap="round" stroke-linejoin="round"/>
<path d="M116.487 61.948C113.306 64.7513 109.09 66.3109 104.709 66.3048C104.151 66.3048 103.606 66.2822 103.072 66.2371C102.974 65.8028 102.925 65.3602 102.926 64.9165C102.927 63.416 103.472 61.9597 104.474 60.7837C105.475 59.6077 106.874 58.7809 108.444 58.4373C110.013 58.0937 111.662 58.2534 113.121 58.8906C114.581 59.5279 115.767 60.6052 116.487 61.948V61.948Z" stroke="#263238" stroke-width="1.48791" stroke-linecap="round" stroke-linejoin="round"/>
<path d="M100.537 43.8887C102.72 43.8887 104.491 42.2413 104.491 40.2091C104.491 38.177 102.72 36.5296 100.537 36.5296C98.3528 36.5296 96.5825 38.177 96.5825 40.2091C96.5825 42.2413 98.3528 43.8887 100.537 43.8887Z" stroke="#263238" stroke-width="1.48791" stroke-linecap="round" stroke-linejoin="round"/>
<path d="M104.2 50.6606C104.2 50.9977 104.092 51.3272 103.891 51.6075C103.69 51.8878 103.404 52.1062 103.069 52.2352C102.734 52.3642 102.366 52.398 102.011 52.3322C101.656 52.2664 101.329 52.1041 101.073 51.8657C100.817 51.6274 100.642 51.3237 100.572 50.9931C100.501 50.6625 100.537 50.3198 100.676 50.0084C100.815 49.6969 101.049 49.4308 101.351 49.2435C101.652 49.0562 102.006 48.9563 102.368 48.9563C102.609 48.9563 102.847 49.0003 103.069 49.086C103.291 49.1716 103.493 49.2972 103.663 49.4554C103.833 49.6137 103.968 49.8016 104.06 50.0084C104.152 50.2152 104.2 50.4368 104.2 50.6606Z" stroke="#263238" stroke-width="1.48791" stroke-linecap="round" stroke-linejoin="round"/>
<path d="M118.669 40.8981C118.188 41.045 117.684 41.1175 117.178 41.1126C116.516 41.1126 115.86 40.991 115.249 40.7549C114.637 40.5188 114.082 40.1728 113.614 39.7366C113.147 39.3005 112.776 38.7828 112.524 38.2132C112.272 37.6436 112.142 37.0332 112.144 36.4172C112.132 36.2217 112.132 36.0257 112.144 35.8302C114.742 36.9829 116.986 38.7257 118.669 40.8981V40.8981Z" stroke="#263238" stroke-width="1.48791" stroke-linecap="round" stroke-linejoin="round"/>
<path d="M514.137 236.096L515.992 232.213L512.984 230.678C513.095 229.994 513.116 229.301 513.045 228.612L516.126 227.213L514.488 223.251L511.189 224.132C510.747 223.579 510.234 223.078 509.661 222.642L510.789 219.617L506.617 217.89L504.955 220.689C504.218 220.604 503.473 220.604 502.735 220.689L501.244 217.822L496.974 219.346L497.932 222.405C497.337 222.823 496.796 223.304 496.319 223.838L493.081 222.788L491.273 226.615L494.281 228.161C494.17 228.845 494.15 229.538 494.221 230.226L491.128 231.615L492.765 235.588L496.064 234.696C496.51 235.25 497.023 235.754 497.593 236.197L496.477 239.211L500.649 240.938L502.299 238.139C503.033 238.242 503.779 238.261 504.518 238.195L506.022 241.073L510.28 239.55L509.334 236.48C509.925 236.065 510.462 235.588 510.935 235.057L514.137 236.096ZM501.45 233.929C500.492 233.532 499.682 232.881 499.122 232.056C498.563 231.231 498.278 230.271 498.305 229.296C498.332 228.321 498.669 227.375 499.273 226.578C499.877 225.781 500.722 225.169 501.7 224.818C502.679 224.468 503.746 224.396 504.769 224.61C505.791 224.825 506.723 225.316 507.445 226.023C508.167 226.73 508.648 227.62 508.826 228.581C509.005 229.543 508.873 230.531 508.448 231.423C507.875 232.617 506.817 233.551 505.505 234.021C504.193 234.491 502.735 234.457 501.45 233.929V233.929Z" stroke="#263238" stroke-width="1.48791" stroke-linecap="round" stroke-linejoin="round"/>
<path d="M491.965 256.017L494.488 250.746L490.412 248.647C490.557 247.72 490.582 246.78 490.485 245.848L494.682 243.951L492.486 238.567L488.011 239.775C487.413 239.02 486.716 238.338 485.937 237.744L487.465 233.635L481.752 231.254L479.508 235.046C478.512 234.913 477.503 234.886 476.5 234.967L474.463 231.073L468.665 233.15L469.963 237.303C469.157 237.87 468.425 238.522 467.779 239.245L463.377 237.868L460.854 243.139L464.929 245.238C464.784 246.165 464.759 247.105 464.856 248.037L460.66 249.934L462.891 255.317L467.367 254.121C467.969 254.873 468.665 255.555 469.441 256.153L467.913 260.25L473.589 262.598L475.833 258.794C476.829 258.933 477.839 258.959 478.841 258.873L480.879 262.767L486.676 260.701L485.379 256.536C486.184 255.974 486.916 255.326 487.562 254.606L491.965 256.017ZM474.741 253.071C473.439 252.531 472.339 251.644 471.579 250.522C470.819 249.4 470.434 248.093 470.472 246.767C470.51 245.441 470.97 244.156 471.794 243.073C472.618 241.991 473.768 241.16 475.099 240.686C476.43 240.212 477.883 240.116 479.273 240.41C480.663 240.704 481.927 241.376 482.907 242.339C483.887 243.303 484.537 244.515 484.777 245.823C485.016 247.13 484.833 248.474 484.251 249.685C483.866 250.489 483.315 251.215 482.628 251.82C481.942 252.425 481.134 252.899 480.251 253.213C479.367 253.528 478.426 253.677 477.481 253.653C476.536 253.629 475.605 253.431 474.741 253.071Z" stroke="#263238" stroke-width="1.48791" stroke-linecap="round" stroke-linejoin="round"/>
<path d="M240.53 205.981C238.868 208.911 236.991 211.732 234.914 214.424C224.138 228.366 208.303 238.208 190.336 242.132C172.368 246.055 153.482 243.794 137.166 235.767C135.48 234.943 133.831 234.063 132.254 233.137C130.677 232.212 129.137 231.264 127.657 230.248C125.862 229.04 124.14 227.754 122.49 226.41C122.384 226.337 122.287 226.254 122.199 226.162C111.451 217.31 103.595 205.824 99.5284 193.014C95.4623 180.205 95.3501 166.59 99.2046 153.724C103.059 140.858 110.725 129.26 121.326 120.256C131.927 111.252 145.036 105.205 159.156 102.804C173.275 100.404 187.835 101.749 201.172 106.683C214.51 111.618 226.086 119.945 234.58 130.712C243.073 141.479 248.141 154.252 249.204 167.572C250.267 180.892 247.282 194.221 240.59 206.037L240.53 205.981Z" fill="#19A89D"/>
<g opacity="0.6">
<path d="M240.53 205.981C238.868 208.911 236.992 211.732 234.914 214.423L233.435 213.295L230.887 212.042L228.207 210.733L228.656 207.719L228.51 204.999C228.352 202.279 230.463 204.502 232.149 203.678C233.464 202.804 234.526 201.641 235.242 200.292C235.242 200.292 236.455 196.669 236.054 195.213C235.401 193.535 234.632 191.899 233.75 190.314L229.408 195.958L225.769 195.698L222.324 194.005L221.876 189.547L220.105 188.689L219.365 186.127L209.795 183.632L208.703 181.849C207.612 180.066 203.209 179.152 203.209 179.152L204.288 176.826L205.987 174.23C207.697 171.634 209.468 175.946 209.468 175.946L211.493 176.928L215.253 173.993L216.248 169.783L222.373 170.111C222.253 169.541 222.346 168.95 222.638 168.437C222.929 167.923 223.401 167.518 223.974 167.289C226.012 166.544 225.114 162.424 224.338 160.9C223.561 159.377 220.699 160.607 220.699 160.607C220.699 160.607 217.582 156.194 217.157 154.433C216.733 152.672 223.101 153.304 225.83 151.532C228.559 149.76 227.625 146.239 226.291 146.16C224.956 146.081 228.898 138.146 236.479 140.324C238.589 140.934 239.924 140.719 240.748 140.042C246.436 150.233 249.387 161.553 249.349 173.036C249.311 184.519 246.285 195.823 240.53 205.981Z" fill="white"/>
<path d="M187.49 175.449L184.894 178.485C184.894 178.485 183.79 176.036 182.213 177.357L179.788 179.366L178.029 183.948L174.875 185.845L172.947 184.908L171.128 184.005L169.151 183.034L167.258 186.42L165.718 189.129C166.469 190.459 167.402 191.692 168.496 192.797L171.843 198.294L175.919 200.213C177.618 200.272 179.31 200.46 180.976 200.777L183.778 202.143L182.784 207.786C182.784 207.786 180.673 210.981 179.266 210.1L177.847 209.231L175.543 216.658L175.445 220.744C175.445 220.744 174.075 221.274 172.692 221.703C171.309 222.132 172.183 221.907 169.284 222.742C166.385 223.577 166.616 223.543 164.263 224.164C162.257 224.817 160.327 225.657 158.501 226.67L158.707 230.598L153.164 231.354L150.059 229.819L150.824 227.336L151.187 223.453L150.763 220.552L149.429 217.99L153.164 214.841L152.34 212.866L150.217 208.938L145.729 211.195L143.425 212.324L138.209 210.145L137.639 207.2L135.893 201.906L134.267 198.61L131.381 194.976L130.653 191.849L132.278 188.982L133.139 187.47L130.483 184.14L129.755 181.77L125.28 177.989C125.28 177.989 126.578 177.91 126.287 176.228C125.995 174.546 128.846 171.713 128.846 171.713C130.459 172.503 135.298 175.641 135.298 175.641L139.531 176.183C139.531 176.183 140.38 176.183 141.205 174.693C142.169 173.323 143.3 172.061 144.577 170.934C144.577 170.934 142.624 164.625 144.019 163.778C145.414 162.932 146.833 158.801 146.833 158.801L147.949 156.826C147.949 156.826 145.317 155.753 144.82 154.455C144.322 153.157 137.833 154.884 137.833 154.884L133.358 157.774L129.828 160.313L128.3 163.011C128.3 163.011 125.183 159.523 125.171 161.476C124.933 163.478 124.461 165.45 123.764 167.356C123.764 167.356 124.407 167.672 123.557 169.185C122.708 170.697 121.787 170.618 119.919 170.833C117.484 170.856 115.05 170.701 112.641 170.37C112.641 170.37 111.428 174.546 112.265 175.269L113.09 175.968C113.09 175.968 111.792 179.005 110.507 178.372L107.377 176.837L102.999 178.485L98.1472 183.474L97.0677 183.271C94.0942 164.712 99.1143 145.81 111.036 130.677C122.958 115.543 140.818 105.401 160.733 102.456C161.012 103.585 161.315 104.646 161.315 104.646L160.102 110.221L158.55 112.976L157.216 115.334L155.336 118.653L160.151 122.784L159.12 127.671L156.512 129.195L155.76 132.863L160.236 141.001L161.449 144.195C160.7 145.725 160.331 147.391 160.369 149.071C160.369 149.071 160.915 152.119 163.304 153.327C165.694 154.534 168.835 155.956 168.835 155.956L168.58 160.471L167.501 161.6L169.296 166.465C174.766 168.463 174.245 170.133 174.766 168.462L175.3 166.803L179.024 165.55L183.766 170.821C184.318 170.815 184.863 170.937 185.35 171.178C185.838 171.418 186.252 171.769 186.556 172.198C187.938 173.824 190.097 172.413 187.49 175.449Z" fill="white"/>
<path d="M123.206 214.762C123.339 216.365 121.156 218.374 121.156 218.374L122.939 219.243L123.485 223.758L122.138 226.151C112.598 218.308 105.322 208.366 100.973 197.233L101.943 192.448L106.225 191.883C106.225 191.883 110.058 189.513 111.756 190.145C113.454 190.777 115.006 194.66 115.006 194.66C115.006 194.66 116.219 199.897 116.062 199.795H115.989H116.086L117.832 200.653L118.33 202.719L115.904 207.008H111.998C111.998 207.008 111.222 206.624 111.149 208.509C111.213 209.163 111.426 209.797 111.776 210.368C112.125 210.938 112.602 211.432 113.175 211.816L117.396 210.812L118.524 206.748L122.672 205.992C122.672 205.992 122.078 208.486 123.048 208.961L124.03 209.446L124.613 212.426C124.178 212.666 123.819 213.008 123.572 213.418C123.325 213.828 123.199 214.292 123.206 214.762Z" fill="white"/>
<path d="M143.267 221.151C142.891 220.18 142.734 219.333 140.15 218.069C137.567 216.805 137.724 217.257 136.705 218.306C136.267 218.846 135.668 219.255 134.982 219.481C134.297 219.708 133.555 219.743 132.848 219.582C131.15 219.232 132.036 221.015 132.036 221.015L132.448 225.835L127.657 230.237C129.137 231.253 130.669 232.216 132.254 233.126L133.273 230.214L141.23 232.381C139.544 231.918 140.538 229.774 140.538 229.774L138.84 228.939C138.84 228.939 143.643 222.099 143.267 221.151Z" fill="white"/>
<path d="M193.384 196.094L190.777 193.644L187.793 194.513L186.58 196.771L185.67 198.396L186.883 200.654L189.309 203.396L190.692 200.936C190.692 200.936 194.537 200.936 196.55 198.87C198.564 196.805 193.384 196.094 193.384 196.094Z" fill="white"/>
<path d="M185.719 185.044L190.57 187.414L190.764 186.353C191.017 185.503 191.464 184.714 192.074 184.039L188.363 180.382L185.719 185.044Z" fill="white"/>
<path d="M184.069 237.584L182.674 235.677L181.049 234.887H176.088L173.262 239.876C173.262 239.876 170.557 239.537 167.004 239.243C163.45 238.95 164.323 240.316 164.323 240.316L163.401 243.453C172.368 244.481 181.459 244.026 190.255 242.11C189.233 241.447 188.172 240.837 187.077 240.282L184.069 237.584Z" fill="white"/>
</g>
<path d="M240.53 205.981C238.868 208.911 236.991 211.732 234.914 214.424C224.138 228.366 208.303 238.208 190.336 242.132C172.368 246.055 153.482 243.794 137.166 235.767C135.48 234.943 133.831 234.063 132.254 233.137C130.677 232.212 129.137 231.264 127.657 230.248C125.862 229.04 124.14 227.754 122.49 226.41C122.384 226.337 122.287 226.254 122.199 226.162V226.162C111.451 217.31 103.595 205.824 99.5284 193.014C95.4623 180.205 95.3501 166.59 99.2046 153.724C103.059 140.858 110.725 129.26 121.326 120.256C131.927 111.252 145.036 105.205 159.156 102.804C173.275 100.404 187.835 101.749 201.172 106.683C214.51 111.618 226.086 119.945 234.58 130.712C243.073 141.479 248.141 154.252 249.204 167.572C250.267 180.892 247.282 194.221 240.59 206.037L240.53 205.981Z" stroke="#263238" stroke-width="1.48791" stroke-linecap="round" stroke-linejoin="round"/>
<path d="M190.255 242.112C181.459 244.027 172.368 244.482 163.401 243.455L164.323 240.317C164.323 240.317 163.45 238.951 167.004 239.245C170.557 239.538 173.262 239.877 173.262 239.877L176.088 234.888H181.049L182.674 235.678L184.069 237.585L187.077 240.283C188.172 240.838 189.233 241.448 190.255 242.112Z" stroke="#263238" stroke-width="1.48791" stroke-linecap="round" stroke-linejoin="round"/>
<path d="M240.797 140.054C239.972 140.731 238.638 140.946 236.527 140.336C228.947 138.158 225.017 146.081 226.339 146.172C227.661 146.262 228.595 149.829 225.878 151.544C223.161 153.26 216.781 152.673 217.206 154.445C217.63 156.217 220.748 160.619 220.748 160.619C220.748 160.619 223.537 159.4 224.326 160.913C225.114 162.425 226.012 166.556 223.974 167.301C223.401 167.53 222.929 167.935 222.638 168.449C222.346 168.962 222.253 169.553 222.373 170.123L216.248 169.795L215.253 174.005L211.493 176.94L209.468 175.958C209.468 175.958 207.697 171.647 205.987 174.243L204.288 176.839L203.209 179.164C203.209 179.164 207.612 180.078 208.703 181.861L209.795 183.645L219.365 186.139L220.105 188.701L221.876 189.559L222.324 194.017L225.89 195.756L229.529 196.015L233.871 190.372C234.753 191.956 235.523 193.593 236.176 195.27C236.6 196.726 235.363 200.349 235.363 200.349C234.647 201.698 233.585 202.861 232.27 203.735C230.536 204.559 228.413 202.336 228.631 205.056L228.777 207.776L228.328 210.79L231.009 212.099L233.556 213.352L235.036 214.481" stroke="#263238" stroke-width="1.48791" stroke-linecap="round" stroke-linejoin="round"/>
<path d="M97.1646 183.272L98.244 183.475L103.096 178.486L107.474 176.838L110.604 178.373C111.889 179.005 113.187 175.969 113.187 175.969L112.362 175.269C111.525 174.547 112.738 170.371 112.738 170.371C115.147 170.701 117.581 170.856 120.016 170.833C121.932 170.619 122.842 170.687 123.654 169.185C124.467 167.684 123.861 167.357 123.861 167.357C124.558 165.45 125.03 163.478 125.268 161.476C125.268 159.524 128.397 163.011 128.397 163.011L129.925 160.314L133.345 157.786L137.821 154.896C137.821 154.896 144.31 153.158 144.807 154.467C145.305 155.776 147.937 156.837 147.937 156.837L146.821 158.813C146.821 158.813 145.39 162.921 144.007 163.79C142.624 164.659 144.565 170.946 144.565 170.946C143.288 172.073 142.156 173.334 141.193 174.705C140.344 176.217 139.519 176.195 139.519 176.195L135.286 175.653C135.286 175.653 130.434 172.515 128.833 171.725C128.833 171.725 125.983 174.558 126.274 176.24C126.565 177.922 125.268 178.001 125.268 178.001L129.743 181.782L130.471 184.152L133.127 187.482L132.266 188.994L130.641 191.861L131.368 194.988L134.255 198.622L135.893 201.907L137.663 207.223L138.233 210.169L143.449 212.347L145.753 211.218L150.241 208.961L152.364 212.889L153.189 214.864L149.453 218.013L150.787 220.575L151.212 223.476L150.848 227.359L150.084 229.842L153.189 231.377L158.732 230.632L158.525 226.693C160.351 225.68 162.281 224.84 164.287 224.187C166.64 223.566 166.409 223.6 169.308 222.765C172.207 221.93 171.321 222.155 172.716 221.727C174.111 221.298 175.47 220.767 175.47 220.767L175.567 216.681L177.871 209.254L179.29 210.123C180.697 211.004 182.808 207.81 182.808 207.81L183.802 202.166L180.94 200.778C179.273 200.461 177.582 200.272 175.882 200.213L171.892 198.261L168.544 192.764C167.451 191.659 166.517 190.426 165.766 189.096L167.307 186.387L169.199 183.001L171.176 183.971L172.995 184.874L174.924 185.811L178.077 183.915L179.836 179.332L182.262 177.323C183.839 175.992 184.942 178.452 184.942 178.452L187.538 175.416C190.146 172.38 187.987 173.791 186.653 172.233C186.349 171.804 185.935 171.453 185.447 171.212C184.96 170.972 184.415 170.849 183.863 170.856L179.12 165.585L175.348 166.917L174.815 168.576C174.293 170.246 174.815 168.576 169.344 166.578L167.549 161.713L168.629 160.585L168.884 156.07C168.884 156.07 165.742 154.636 163.353 153.44C160.963 152.244 160.417 149.185 160.417 149.185C160.379 147.505 160.748 145.838 161.497 144.309L160.284 141.115L155.808 132.977L156.56 129.308L159.168 127.785L160.199 122.897L155.517 118.766L157.397 115.448L158.732 113.089L160.284 110.335L161.497 104.759C161.497 104.759 161.194 103.721 160.915 102.569" stroke="#263238" stroke-width="1.48791" stroke-linecap="round" stroke-linejoin="round"/>
<path d="M122.551 226.4C122.456 226.299 122.351 226.208 122.235 226.129V226.129L123.582 223.736L123.036 219.221L121.253 218.352C121.253 218.352 123.436 216.343 123.303 214.74C123.279 214.262 123.394 213.787 123.635 213.364C123.876 212.941 124.234 212.586 124.673 212.336L124.091 209.356L123.109 208.871C122.138 208.397 122.733 205.902 122.733 205.902L118.584 206.659L117.456 210.722L113.236 211.727C112.663 211.343 112.186 210.849 111.836 210.278C111.487 209.707 111.273 209.074 111.21 208.419C111.283 206.534 112.059 206.918 112.059 206.918H115.965L118.39 202.629L117.893 200.564L116.146 199.706" stroke="#263238" stroke-width="1.48791" stroke-linecap="round" stroke-linejoin="round"/>
<path d="M116.038 199.706C116.232 199.807 114.982 194.57 114.982 194.57C114.982 194.57 113.43 190.744 111.732 190.056C110.034 189.367 106.201 191.794 106.201 191.794L101.92 192.358L100.949 197.144" stroke="#263238" stroke-width="1.48791" stroke-linecap="round" stroke-linejoin="round"/>
<path d="M133.273 230.215L132.254 233.127C130.637 232.209 129.105 231.246 127.657 230.237L132.448 225.835L132.036 221.016C132.036 221.016 131.15 219.233 132.848 219.582C133.555 219.744 134.297 219.709 134.982 219.482C135.668 219.256 136.267 218.847 136.705 218.307C137.7 217.257 137.579 216.806 140.15 218.07C142.721 219.334 142.891 220.181 143.267 221.151C143.643 222.122 138.84 228.973 138.84 228.973L140.538 229.809C140.538 229.809 139.544 231.953 141.23 232.416L133.273 230.215Z" stroke="#263238" stroke-width="1.48791" stroke-linecap="round" stroke-linejoin="round"/>
<path d="M187.793 194.514L190.776 193.645L193.384 196.094C193.384 196.094 198.539 196.715 196.526 198.803C194.512 200.891 190.667 200.869 190.667 200.869L189.26 203.329L186.834 200.587L185.622 198.329L186.531 196.704L187.793 194.514Z" stroke="#263238" stroke-width="1.48791" stroke-linecap="round" stroke-linejoin="round"/>
<path d="M192.074 184.039C191.464 184.714 191.017 185.503 190.764 186.353L190.57 187.414L185.719 185.044L188.363 180.382L192.074 184.039Z" stroke="#263238" stroke-width="1.48791" stroke-linecap="round" stroke-linejoin="round"/>
<path d="M455.286 450.278C448.785 455.312 398.704 487.299 327.24 482.141C323.395 451.87 308.731 327.509 325.408 308.005C325.408 308.005 365.871 290.048 403.143 297.587C440.416 305.127 454.922 312.351 457.578 318.604C459.592 323.333 456.717 411.394 455.286 450.278Z" fill="#263238"/>
<path d="M401.906 310.872C380.438 328.175 352.784 324.518 353.39 311.233C353.487 309.156 355.877 306.583 355.877 306.583L355.04 305.387L351.401 300.274C348.745 296.447 345.421 291.639 343.105 288.14C341.164 285.16 389.547 257.462 389.547 273.388C389.547 295.826 401.385 300.048 401.385 300.048C405.848 301.718 410.008 304.359 401.906 310.872Z" fill="white" stroke="#263238" stroke-width="1.48791" stroke-linecap="round" stroke-linejoin="round"/>
<path d="M415.479 345.139C415.479 345.139 411.149 358.955 413.198 362.916" stroke="white" stroke-width="1.48791" stroke-linecap="round" stroke-linejoin="round"/>
<path d="M410.421 305.026C410.421 318.356 367.69 331.415 355.173 318.04" stroke="white" stroke-width="1.48791" stroke-linecap="round" stroke-linejoin="round"/>
<path d="M375.271 289.642C375.271 289.642 372.408 299.687 359.067 307.532C358.43 306.515 357.403 305.761 356.192 305.421C355.79 305.36 355.381 305.36 354.979 305.421L351.34 300.308C358.242 295.68 375.271 289.642 375.271 289.642Z" fill="#263238"/>
<path d="M381.263 277.293C381.263 277.293 381.117 287.203 378.837 289.224C361.917 304.326 345.373 305.522 342.644 301.538C324.268 274.72 328.61 267.677 326.743 263.083C323.431 255.024 319.368 241.863 321.163 233.895C325.166 216.095 361.189 202.291 380.159 220.192C389.256 228.759 392.13 247.349 390.214 262.835" fill="white"/>
<path d="M381.263 277.293C381.263 277.293 381.117 287.203 378.837 289.224C361.917 304.326 345.373 305.522 342.644 301.538C324.268 274.72 328.61 267.677 326.743 263.083C323.431 255.024 319.368 241.863 321.163 233.895C325.166 216.095 361.189 202.291 380.159 220.192C389.256 228.759 392.13 247.349 390.214 262.835" stroke="#263238" stroke-width="1.48791" stroke-linecap="round" stroke-linejoin="round"/>
<path d="M329.059 254.798C329.059 254.798 324.001 252.687 322.91 255.204" stroke="#263238" stroke-width="1.48791" stroke-linecap="round" stroke-linejoin="round"/>
<path d="M341.322 254.956C341.322 254.956 351.838 250.859 356.568 255.836" stroke="#263238" stroke-width="1.48791" stroke-linecap="round" stroke-linejoin="round"/>
<path d="M353.002 261.898C353.172 263.365 352.408 264.641 351.28 264.765C350.152 264.889 349.108 263.771 348.939 262.304C348.769 260.837 349.533 259.55 350.661 259.437C351.789 259.324 352.784 260.43 353.002 261.898Z" fill="#263238"/>
<path d="M332.383 262.338C332.565 263.805 331.788 265.092 330.66 265.205C329.532 265.318 328.489 264.223 328.32 262.756C328.15 261.288 328.914 260.002 330.042 259.889C331.17 259.776 332.189 260.871 332.383 262.338Z" fill="#263238"/>
<path d="M332.892 258.478C334.36 260.679 333.559 264.438 331.619 269.596C329.678 274.754 331.388 276.616 338.836 277.135" fill="white"/>
<path d="M332.892 258.478C334.36 260.679 333.559 264.438 331.619 269.596C329.678 274.754 331.388 276.616 338.836 277.135" stroke="#263238" stroke-width="1.48791" stroke-linecap="round" stroke-linejoin="round"/>
<path d="M338.835 286.064C338.835 286.064 348.539 285.24 352.978 282.971" stroke="#263238" stroke-width="1.48791" stroke-linecap="round" stroke-linejoin="round"/>
<path d="M400.305 234.888C400.305 228.183 393.198 214.424 380.729 212.878C373.561 205.903 363.348 203.341 350.952 205.993C322.303 212.111 313.583 238.432 312.333 242.789C312.212 243.195 312.151 243.421 312.151 243.421L319.817 241.615L316.518 247.608L320.533 250.08L319.611 251.028L324.268 255.204L322.813 247.574C323.71 242.653 329.799 235.768 329.799 235.768C327.577 238.449 326.192 241.647 325.797 245.012C328.222 239.154 342.777 233.725 342.777 233.725C338.059 237.292 335.5 244.267 335.5 244.267C339.987 239.12 350.503 235.791 357.235 234.019C359.503 239.109 363.105 244.425 368.248 247.371C373.1 250.148 372.93 255.882 372.93 255.882C378.15 259.258 381.995 264.173 383.846 269.832L389.716 277.304C389.716 277.304 400.305 265.216 400.305 234.888Z" fill="#263238"/>
<path d="M375.599 257.801C373.634 253.884 380.766 243.274 385.823 244.583C388.662 245.328 392.373 250.148 393.101 255.205C393.829 260.261 389.984 269.878 385.884 271.966C383.276 273.32 381.129 269.629 381.129 269.629" fill="white"/>
<path d="M375.599 257.801C373.634 253.884 380.766 243.274 385.823 244.583C388.662 245.328 392.373 250.148 393.101 255.205C393.829 260.261 389.984 269.878 385.884 271.966C383.276 273.32 381.129 269.629 381.129 269.629" stroke="#263238" stroke-width="1.48791" stroke-linecap="round" stroke-linejoin="round"/>
<path d="M66.1626 449.375L203.209 419.555L489.065 450.278L415.467 497.119L66.1626 449.375Z" fill="white"/>
<path d="M66.1626 449.375L203.209 419.555L489.065 450.278" fill="white"/>
<path d="M66.1626 449.375L203.209 419.555L489.065 450.278" stroke="#263238" stroke-width="1.48791" stroke-linecap="round" stroke-linejoin="round"/>
<path d="M184.76 455.357L240.238 432.535L310.381 435.91L279.185 460.73L184.76 455.357Z" fill="white" stroke="#263238" stroke-width="1.48791" stroke-linecap="round" stroke-linejoin="round"/>
<path d="M328.113 306.877C310.32 313.649 306.487 328.875 276.25 389.046C276.25 389.046 262.823 391.608 255.63 406.789C248.438 421.97 260.482 433.957 274.345 433.551C274.345 433.551 279.913 438.066 291.326 437.603C302.739 437.14 353.184 365.31 353.184 365.31L328.113 306.877Z" fill="#263238"/>
<path d="M281.55 392.579C289.506 399.17 294.079 408.843 291.653 419.566" stroke="white" stroke-width="1.48791" stroke-linecap="round" stroke-linejoin="round"/>
<path d="M289.228 395.751C289.228 395.751 299.004 397.737 300.52 409.386" stroke="white" stroke-width="1.48791" stroke-linecap="round" stroke-linejoin="round"/>
<path d="M317.828 361.664C313.209 351.059 311.613 339.523 313.194 328.176" stroke="white" stroke-width="1.48791" stroke-linecap="round" stroke-linejoin="round"/>
<path d="M316.445 346.313C315.705 351.054 320.969 376.291 320.933 402.827" stroke="white" stroke-width="1.48791" stroke-linecap="round" stroke-linejoin="round"/>
<path d="M449.452 311.865C471.709 322.272 474.353 354.293 453.358 392.579C438.524 419.6 418.05 459.5 405.096 462.175C392.142 464.85 379.504 457.344 379.504 457.344C379.504 457.344 368.588 456.87 365.289 449.646C356.265 429.905 379.201 404.961 388.176 410.932C388.176 410.932 416.995 352.612 422.247 348.932" fill="#263238"/>
<path d="M363.227 437.648C360.279 424.024 383.324 407.952 388.176 410.931C388.176 410.931 405.29 411.823 407.849 422.839" stroke="white" stroke-width="1.48791" stroke-linecap="round" stroke-linejoin="round"/>
<path d="M425.922 440.548C435.94 424.103 453.358 392.579 453.358 392.579" stroke="white" stroke-width="1.48791" stroke-linecap="round" stroke-linejoin="round"/>
<path d="M388.176 410.931C388.176 410.931 400.172 404.249 409.135 410.57" stroke="white" stroke-width="1.48791" stroke-linecap="round" stroke-linejoin="round"/>
<path d="M392.276 402.816C392.276 402.816 398.898 389.272 405.618 376.856C412.337 364.44 427.717 346.054 434.109 345.162" stroke="white" stroke-width="1.48791" stroke-linecap="round" stroke-linejoin="round"/>
<path d="M265.867 427.162C264.426 427.097 263.019 426.738 261.743 426.112C241.124 416.101 225.089 399.554 215.434 387.68C211.681 383.142 208.226 378.397 205.088 373.47L210.037 353.74C210.037 353.74 214.695 365.027 233.41 376.122C252.125 387.217 274.357 390.874 281.55 402.082C287.918 411.846 276.698 427.648 265.867 427.162Z" fill="white"/>
<path opacity="0.4" d="M265.867 427.162C265.637 425.735 265.23 424.337 264.654 422.997C260.324 412.907 234.125 392.85 234.125 392.85C227.891 392.669 221.038 390.254 215.459 387.68C211.697 383.143 208.234 378.397 205.088 373.47L210.037 353.74C210.037 353.74 214.695 365.027 233.41 376.122C252.125 387.217 274.357 390.874 281.55 402.082C287.918 411.846 276.698 427.648 265.867 427.162Z" fill="#19A89D"/>
<path d="M265.867 427.162C264.426 427.097 263.019 426.738 261.743 426.112C241.124 416.101 225.089 399.554 215.434 387.68C211.681 383.142 208.226 378.397 205.088 373.47L210.037 353.74C210.037 353.74 214.695 365.027 233.41 376.122C252.125 387.217 274.357 390.874 281.55 402.082C287.918 411.846 276.698 427.648 265.867 427.162Z" stroke="#263238" stroke-width="1.48791" stroke-linecap="round" stroke-linejoin="round"/>
<path d="M219.17 372.274C219.17 372.274 216.611 382.793 209.867 380.434C206.229 379.159 199.218 369.046 197.896 363.944L219.17 372.274Z" fill="white" stroke="#263238" stroke-width="1.48791" stroke-linecap="round" stroke-linejoin="round"/>
<path d="M189.442 307.497L194.948 304.856C194.948 304.856 210.51 304.98 220.165 312.283C228.934 318.92 233.385 329.315 233.385 329.315C233.385 329.315 267.456 311.809 302.254 321.854L316.445 395.457L251.203 399.43L210.486 363.436L189.442 307.497Z" fill="white" stroke="#263238" stroke-width="1.48791" stroke-linecap="round" stroke-linejoin="round"/>
<path d="M320.933 398.403C320.933 398.403 313.279 398.189 303.043 398.505C287.566 398.956 266.182 400.581 256.406 405.875L255.946 405.728L246.994 402.816L246.812 402.568C245.163 400.311 231.857 382.533 212.851 375.298L185.973 305.409C185.973 305.409 213.87 306.538 229.116 329.992L236.77 332.566C236.77 332.566 282.314 320.015 307.809 324.529L320.933 398.403Z" fill="#19A89D"/>
<path opacity="0.3" d="M246.812 402.579C245.163 400.322 231.857 382.545 212.851 375.31L185.973 305.421C185.973 305.421 213.87 306.549 229.116 330.004L246.812 402.579Z" fill="black" fill-opacity="0.7"/>
<path opacity="0.3" d="M303.043 398.504C287.566 398.955 266.182 400.581 256.406 405.874L255.946 405.728L238.067 335.093C238.067 335.093 252.695 332.035 257.195 333.581C257.183 333.604 286.923 354.022 303.043 398.504Z" fill="black" fill-opacity="0.7"/>
<path d="M320.933 398.403C320.933 398.403 313.279 398.189 303.043 398.505C287.566 398.956 266.182 400.581 256.406 405.875L255.946 405.728L246.994 402.816L246.812 402.568C245.163 400.311 231.857 382.533 212.851 375.298L185.973 305.409C185.973 305.409 213.87 306.538 229.116 329.992L236.77 332.566C236.77 332.566 282.314 320.015 307.809 324.529L320.933 398.403Z" stroke="#263238" stroke-width="1.48791" stroke-linecap="round" stroke-linejoin="round"/>
<path d="M236.794 332.577L254.345 400.333" stroke="#263238" stroke-width="1.48791" stroke-linecap="round" stroke-linejoin="round"/>
<path d="M246.994 402.827L229.941 335.116" stroke="#263238" stroke-width="1.48791" stroke-linecap="round" stroke-linejoin="round"/>
<path d="M203.67 373.526C199.776 372.522 191.929 350.749 195.519 341.37C195.519 341.37 199.788 334.473 201.583 333.999C204.3 333.266 215.265 333.48 214.731 335.196C213.518 339.169 205.101 339.101 205.101 339.101L202.372 343.751L202.481 346.314C202.481 346.314 206.447 343.627 207.903 343.706C208.655 343.706 212.536 345.512 215.617 347.025C218.249 348.323 219.862 349.034 219.255 350.208C217.303 354.113 208.994 351.336 208.994 351.336L205.865 355.727C205.865 355.727 208.885 356.212 210.207 356.348C211.529 356.483 222.506 363.289 222.178 364.136C220.881 367.454 210.474 363.865 210.474 363.865L208.63 365.298C208.63 365.298 216.296 367.138 217.121 367.409C218.334 367.827 223.003 371.168 222.93 371.551C222.373 374.486 215.932 372.33 215.932 372.33L210.292 372.116C209.433 372.821 208.399 373.317 207.284 373.56" fill="white"/>
<path d="M203.67 373.526C199.776 372.522 191.929 350.749 195.519 341.37C195.519 341.37 199.788 334.473 201.583 333.999C204.3 333.266 215.265 333.48 214.731 335.196C213.518 339.169 205.101 339.101 205.101 339.101L202.372 343.751L202.481 346.314C202.481 346.314 206.447 343.627 207.903 343.706C208.655 343.706 212.536 345.512 215.617 347.025C218.249 348.323 219.862 349.034 219.255 350.208C217.303 354.113 208.994 351.336 208.994 351.336L205.865 355.727C205.865 355.727 208.885 356.212 210.207 356.348C211.529 356.483 222.506 363.289 222.178 364.136C220.881 367.454 210.474 363.865 210.474 363.865L208.63 365.298C208.63 365.298 216.296 367.138 217.121 367.409C218.334 367.827 223.003 371.168 222.93 371.551C222.373 374.486 215.932 372.33 215.932 372.33L210.292 372.116C209.433 372.821 208.399 373.317 207.284 373.56" stroke="#263238" stroke-width="1.48791" stroke-linecap="round" stroke-linejoin="round"/>
<path d="M202.432 346.313C202.432 346.313 198.793 349.157 197.86 349.981C196.926 350.805 197.156 353.424 197.156 353.424" stroke="#263238" stroke-width="1.48791" stroke-linecap="round" stroke-linejoin="round"/>
<path d="M199.8 359.203C199.8 362.069 201.862 363.808 202.808 364.733C203.754 365.659 201.292 368.176 204.021 369.982" stroke="#263238" stroke-width="1.48791" stroke-linecap="round" stroke-linejoin="round"/>
<path d="M379.455 450.075C371.754 452.027 363.385 439.431 353.172 425.683C346.428 416.654 338.884 407.026 330.212 400.852C329.52 400.367 328.817 399.892 328.113 399.441L333.183 375.738C343.711 380.874 350.237 389.102 361.165 397.556C378.752 411.179 394.338 419.543 398.656 425.57C402.974 431.598 392.652 446.722 379.455 450.075Z" fill="white"/>
<path opacity="0.4" d="M353.172 425.672C346.428 416.643 338.884 407.015 330.211 400.841C331.354 400.895 332.497 400.734 333.571 400.367C333.571 400.367 347.277 410.717 353.172 425.672Z" fill="#19A89D"/>
<path d="M379.455 450.075C371.754 452.027 363.385 439.431 353.172 425.683C346.428 416.654 338.884 407.026 330.212 400.852C329.52 400.367 328.817 399.892 328.113 399.441L333.183 375.738C343.711 380.874 350.237 389.102 361.165 397.556C378.752 411.179 394.338 419.543 398.656 425.57C402.974 431.598 392.652 446.722 379.455 450.075Z" stroke="#263238" stroke-width="1.48791" stroke-linecap="round" stroke-linejoin="round"/>
<path d="M336.022 398.505C335.495 399.381 334.626 400.036 333.596 400.333C333.322 400.433 333.042 400.52 332.759 400.593H332.528C324.39 402.568 306.075 398.46 306.075 398.46C306.075 398.46 294.079 393.155 293.352 391.902C292.845 390.909 292.395 389.892 292.005 388.854L291.678 387.963C291.678 387.963 287.36 385.705 286.826 383.944C286.293 382.184 285.383 381.687 288.039 381.371C290.695 381.055 305.02 381.371 305.02 381.371L289.434 375.457C289.434 375.457 279.112 370.614 278.154 368.91C277.196 367.206 275.995 366.077 281.271 366.754C286.547 367.431 298.07 370.547 298.07 370.547L307.154 372.341L298.13 368.763C298.13 368.763 280.374 366.766 283.733 361.63H293.813C299.522 361.865 305.202 362.537 310.793 363.639C313.728 364.474 333.135 375.694 333.135 375.694" fill="white"/>
<path opacity="0.4" d="M332.504 400.637C324.365 402.613 306.051 398.504 306.051 398.504C306.051 398.504 294.055 393.199 293.327 391.946C292.82 390.954 292.371 389.936 291.981 388.899L306.706 390.4C306.191 391.263 305.92 392.234 305.92 393.222C305.92 394.209 306.191 395.18 306.706 396.044C308.343 398.786 326.997 401.563 332.504 400.637Z" fill="#19A89D"/>
<path d="M336.022 398.505C335.495 399.381 334.626 400.036 333.596 400.333C333.322 400.433 333.042 400.52 332.759 400.593H332.528C324.39 402.568 306.075 398.46 306.075 398.46C306.075 398.46 294.079 393.155 293.352 391.902C292.845 390.909 292.395 389.892 292.005 388.854L291.678 387.963C291.678 387.963 287.36 385.705 286.826 383.944C286.293 382.184 285.383 381.687 288.039 381.371C290.695 381.055 305.02 381.371 305.02 381.371L289.434 375.457C289.434 375.457 279.112 370.614 278.154 368.91C277.196 367.206 275.995 366.077 281.271 366.754C286.547 367.431 298.07 370.547 298.07 370.547L307.154 372.341L298.13 368.763C298.13 368.763 280.374 366.766 283.733 361.63H293.813C299.522 361.865 305.202 362.537 310.793 363.639C313.728 364.474 333.135 375.694 333.135 375.694" stroke="#263238" stroke-width="1.48791" stroke-linecap="round" stroke-linejoin="round"/>
<path d="M291.653 388.008L309.374 390.434" stroke="#263238" stroke-width="1.48791" stroke-linecap="round" stroke-linejoin="round"/>
<path d="M115.006 438.506L159.423 450.922L240.687 433.664C240.687 433.664 191.055 420.548 190.594 420.875C190.134 421.203 115.006 438.506 115.006 438.506Z" fill="#19A89D"/>
<path opacity="0.3" d="M115.006 438.506L159.423 450.922L240.687 433.664C240.687 433.664 191.055 420.548 190.594 420.875C190.134 421.203 115.006 438.506 115.006 438.506Z" fill="black" fill-opacity="0.7"/>
<path d="M115.006 438.506L159.423 450.922L240.687 433.664C240.687 433.664 191.055 420.548 190.594 420.875C190.134 421.203 115.006 438.506 115.006 438.506Z" stroke="#263238" stroke-width="1.48791" stroke-linecap="round" stroke-linejoin="round"/>
<path d="M115.649 423.945C112.532 424.148 111.755 434.6 115.006 438.505L186.761 424.645L192.511 411.981L115.649 423.945Z" fill="#19A89D"/>
<path opacity="0.3" d="M115.649 423.945C112.532 424.148 111.755 434.6 115.006 438.505L186.761 424.645L192.511 411.981L115.649 423.945Z" fill="black" fill-opacity="0.7"/>
<path d="M115.649 423.945C112.532 424.148 111.755 434.6 115.006 438.505L186.761 424.645L192.511 411.981L115.649 423.945Z" stroke="#263238" stroke-width="1.48791" stroke-linecap="round" stroke-linejoin="round"/>
<path d="M237.206 423.799C237.206 423.799 236.139 429.295 236.83 432.681L159.338 449.002L118.487 437.806C118.487 437.806 114.242 430.819 117.941 425.39L192.583 413.595L237.206 423.799Z" fill="white" stroke="#263238" stroke-width="1.48791" stroke-linecap="round" stroke-linejoin="round"/>
<path d="M115.649 423.945L192.511 411.981L240.238 423.234L159.968 438.122L115.649 423.945Z" fill="#19A89D" stroke="#263238" stroke-width="1.48791" stroke-linecap="round" stroke-linejoin="round"/>
<path d="M118.378 430.627L159.022 441.892L225.55 429.431" stroke="#263238" stroke-width="1.48791" stroke-linecap="round" stroke-linejoin="round"/>
<path d="M236.612 430.582L165.075 444.781" stroke="#263238" stroke-width="1.48791" stroke-linecap="round" stroke-linejoin="round"/>
<path d="M119.336 435.064C119.955 435.12 149.974 443.721 149.974 443.721" stroke="#263238" stroke-width="1.48791" stroke-linecap="round" stroke-linejoin="round"/>
<path d="M230.766 427.975L236.454 427.117" stroke="#263238" stroke-width="1.48791" stroke-linecap="round" stroke-linejoin="round"/>
<path d="M157.7 445.809L154.68 445.177" stroke="#263238" stroke-width="1.48791" stroke-linecap="round" stroke-linejoin="round"/>
<path d="M117.942 425.39C119.532 427.095 120.453 429.253 120.552 431.509C120.651 433.765 119.923 435.986 118.487 437.806C117.158 435.991 116.403 433.865 116.306 431.671C116.21 429.476 116.776 427.3 117.942 425.39Z" fill="#263238"/>
<path opacity="0.3" d="M117.942 425.39C119.532 427.095 120.453 429.253 120.552 431.509C120.651 433.765 119.923 435.986 118.487 437.806C117.158 435.991 116.403 433.865 116.306 431.671C116.21 429.476 116.776 427.3 117.942 425.39Z" fill="white" fill-opacity="0.7"/>
<path d="M117.942 425.39C119.532 427.095 120.453 429.253 120.552 431.509C120.651 433.765 119.923 435.986 118.487 437.806C117.158 435.991 116.403 433.865 116.306 431.671C116.21 429.476 116.776 427.3 117.942 425.39Z" stroke="#263238" stroke-width="1.48791" stroke-linecap="round" stroke-linejoin="round"/>
<path d="M283.951 441.891L361.516 444.848L353.96 469.691L258.541 466.305L283.951 441.891Z" fill="white"/>
<path opacity="0.4" d="M283.951 441.891L361.516 444.848L353.96 469.691L258.541 466.305L283.951 441.891Z" fill="#19A89D"/>
<path d="M283.951 441.891L361.516 444.848L353.96 469.691L258.541 466.305L283.951 441.891Z" stroke="#263238" stroke-width="1.48791" stroke-linecap="round" stroke-linejoin="round"/>
</svg>
