<svg width="49" height="48" viewBox="0 0 49 48" fill="none" xmlns="http://www.w3.org/2000/svg">
<path d="M24.501 16C27.2624 16 29.501 13.7614 29.501 11C29.501 8.23858 27.2624 6 24.501 6C21.7396 6 19.501 8.23858 19.501 11C19.501 13.7614 21.7396 16 24.501 16Z" stroke="black" stroke-width="3" stroke-linecap="round" stroke-linejoin="round"/>
<path d="M24.5004 42.736L34.6904 32.544C35.27 31.9719 35.7307 31.2908 36.046 30.5399C36.3613 29.789 36.525 28.9832 36.5276 28.1688C36.5303 27.3544 36.3718 26.5475 36.0614 25.7946C35.7509 25.0416 35.2946 24.3576 34.7188 23.7817C34.1429 23.2058 33.4588 22.7495 32.7059 22.4391C31.953 22.1286 31.1461 21.9702 30.3317 21.9728C29.5173 21.9754 28.7114 22.1391 27.9606 22.4544C27.2097 22.7697 26.5285 23.2305 25.9564 23.81L24.5004 25.264L23.0444 23.81C22.4723 23.2305 21.7912 22.7697 21.0403 22.4544C20.2894 22.1391 19.4835 21.9754 18.6691 21.9728C17.8547 21.9702 17.0478 22.1286 16.2949 22.4391C15.542 22.7495 14.8579 23.2058 14.2821 23.7817C13.7062 24.3576 13.2499 25.0416 12.9394 25.7946C12.629 26.5475 12.4705 27.3544 12.4732 28.1688C12.4758 28.9832 12.6395 29.789 12.9548 30.5399C13.2701 31.2908 13.7308 31.9719 14.3104 32.544L24.5004 42.736Z" stroke="black" stroke-width="3" stroke-linecap="round" stroke-linejoin="round"/>
</svg>
